<?xml version="1.0" encoding="utf-8"?>
<!-- Generator: Adobe Illustrator 23.0.6, SVG Export Plug-In . SVG Version: 6.00 Build 0)  -->
<svg version="1.1" id="Layer_1" xmlns="http://www.w3.org/2000/svg" xmlns:xlink="http://www.w3.org/1999/xlink" x="0px" y="0px"
	 viewBox="0 0 1720 880" style="enable-background:new 0 0 1720 880;" xml:space="preserve">
<style type="text/css">
	.st0{fill:#632C85;}
	.st1{fill:#B38A54;}
	.st2{opacity:0.8;}
	.st3{fill:#231F20;}
	.st4{fill:url(#SVGID_1_);}
	.st5{fill:url(#SVGID_2_);}
	.st6{fill:url(#SVGID_3_);}
	.st7{fill:url(#SVGID_4_);}
	.st8{fill:url(#SVGID_5_);}
	.st9{fill:url(#SVGID_6_);}
	.st10{fill:url(#SVGID_7_);}
	.st11{fill:url(#SVGID_8_);}
	.st12{fill:url(#SVGID_9_);}
	.st13{fill:url(#SVGID_10_);}
	.st14{fill:url(#SVGID_11_);}
	.st15{fill:url(#SVGID_12_);}
	.st16{fill:url(#SVGID_13_);}
	.st17{fill:url(#SVGID_14_);}
	.st18{fill:url(#SVGID_15_);}
	.st19{fill:url(#SVGID_16_);}
	.st20{fill:url(#SVGID_17_);}
	.st21{fill:url(#SVGID_18_);}
	.st22{fill:url(#SVGID_19_);}
	.st23{fill:url(#SVGID_20_);}
	.st24{fill:url(#SVGID_21_);}
	.st25{fill:url(#SVGID_22_);}
	.st26{fill:url(#SVGID_23_);}
	.st27{fill:url(#SVGID_24_);}
	.st28{fill:url(#SVGID_25_);}
	.st29{fill:url(#SVGID_26_);}
	.st30{fill:url(#SVGID_27_);}
	.st31{fill:url(#SVGID_28_);}
	.st32{fill:#AEB0B3;}
	.st33{fill:#D4D6D7;}
</style>
<g>
	<path class="st0" d="M989.4,126.9c-34-34-79.2-52.7-127.3-52.7s-93.3,18.7-127.3,52.7s-52.7,79.2-52.7,127.3s18.7,93.3,52.7,127.3
		s79.2,52.7,127.3,52.7s93.3-18.7,127.3-52.7s52.7-79.2,52.7-127.3S1023.4,160.9,989.4,126.9z"/>
	<g>
		<g>
			<path class="st1" d="M862.2,39.4c-118.7,0-215.3,96.6-215.3,215.3S743.5,470,862.2,470s215.3-96.6,215.3-215.3
				C1077.4,135.9,980.9,39.4,862.2,39.4z M1053.7,254.6c0,105.8-85.7,191.5-191.5,191.5s-191.5-85.7-191.5-191.5
				S756.4,63.2,862.2,63.2C967.9,63.2,1053.7,148.9,1053.7,254.6z"/>
		</g>
	</g>
	<g class="st2">
		<path class="st3" d="M862.3,297.1c-3.9-0.1-6.9-0.9-8.2-2l-0.8-1.1l0.8-1l-0.4,0.4h-0.5l-0.4-2.8l0.4-1.1l-0.5,0.1l-1.8-13.2
			l-1-7.1c-1.1-7.7-12.3-42.2-14.5-49l-3.3-10c-6.4-19.5-12.5-37.8-12.5-51.4c0-32.1,16-46.2,25.5-54.6l2-1.8
			c7.3-6.5,12.1-13,13.8-15.5l1.1-1.7l1.7,1.3c2,2.9,6.8,9.4,14.1,15.9l2,1.8c9.5,8.4,25.5,22.4,25.5,54.6
			c0,13.5-6.1,31.9-12.5,51.4l-3.3,10c-2.2,6.8-13.4,41.3-14.5,49l-2.9,20.3l-0.7,1l0.5,0.1l-0.2,1.4l-0.1,0.1l0.2-0.2l-0.3,1.7
			l-0.2,0.9l-0.4-0.3l-0.4,0.4l0.4,0.3c-1.8,1.6-4.7,2.3-8.2,2.4l0,0L862.3,297.1L862.3,297.1z"/>
		<path class="st3" d="M850.2,269c0.3,2.3,0.7,4.7,1,7.1c0.7,5.1,1.4,10,1.8,13.2c0,0.4,0.1,0.8,0.2,1.1c0.1,0.7,0.2,1.3,0.2,1.7
			s0.1,0.8,0.1,1c0,0.1,0,0.1,0,0.1l0,0v0.1l0,0l0,0v0.1c0,0.1,0.1,0.3,0.1,0.4c0.1,0.2,0.2,0.4,0.3,0.6c0,0.1,0.1,0.1,0.2,0.1
			c0,0,0.1,0.1,0.2,0.1c1.2,1.1,4.1,1.8,7.4,1.9l0,0c0.1,0,0.1,0,0.2,0c0,0,0.1,0,0.2,0c0.1,0,0.1,0,0.2,0c0.1,0,0.1,0,0.2,0l0,0
			c3.4-0.1,6.2-0.8,7.4-1.9c0,0,0.1-0.1,0.2-0.1s0.1-0.1,0.2-0.1c0.1-0.2,0.3-0.4,0.3-0.6c0-0.1,0.1-0.3,0.1-0.4c0,0,0,0,0-0.1l0,0
			l0,0v-0.1l0,0v-0.1c0-0.2,0.1-0.6,0.1-1s0.1-1,0.2-1.7c0-0.3,0.1-0.7,0.2-1.1c0.4-3.3,1.1-8.1,1.9-13.2c0.3-2.4,0.7-4.8,1-7.1
			c1.1-7.2,10.8-37.5,14.5-49.1c7.6-23.4,15.8-45.5,15.8-61.2c0-33.3-17-46.8-26.6-55.3l-0.7-0.7c-7.4-6.6-12.2-13.1-13.9-15.6
			c-0.1-0.2-0.2-0.3-0.3-0.4l-0.8-1.3l-0.8,1.3c-0.1,0.1-0.2,0.3-0.3,0.4c-1.7,2.4-6.5,9-13.9,15.6l-0.7,0.7
			c-9.5,8.5-26.5,22-26.5,55.3c0,15.7,8.2,37.8,15.8,61.2C839.5,231.5,849.1,261.8,850.2,269z"/>
		<path class="st3" d="M860.9,302.3c-3.3,0-6.4-0.2-9.3-0.5l-4.1-0.6c-1.9-0.3-3.7-0.7-5.2-1.1l-1.2-0.4c-1-0.4-1.8-0.7-2.3-1.2
			c-0.5-0.4-0.8-0.9-1-1.4l0.5-1.1l-0.5-0.1l0.4-0.9l0.7-0.2l0.6,0.1c0.3,1.1,1.9,1.7,3.9,1.7c0.9,0,1.8-0.1,2.8-0.3
			c0.6-0.1,1.2-0.3,1.7-0.5c1.3-0.4,2.3-1,3-1.6s1-0.8,1.3-0.8h0.5l0.4,1c0,1.9,3.7,3.6,8.9,3.6s8.9-1.7,8.9-3.2
			c0.1-1.4,0.7-1.5,0.9-1.5h0.2l0.7,0.4c1.1,1,2.2,1.6,3.5,2c0.5,0.2,1.1,0.4,1.7,0.5c1,0.2,1.9,0.3,2.8,0.3c2.1,0,3.6-0.6,3.9-1.4
			v-0.7l0.7-0.1c0.7,0.7,0.9,1,1,1.4l-0.5,1.2l0.5,0.1c-0.1,0.5-0.5,1-1,1.4c-0.5,0.5-1.3,0.9-2.3,1.2l-1.2,0.4
			c-1.5,0.4-3.3,0.8-5.2,1.1l-1.9,0.3l-2.1,0.3c-2.9,0.3-6,0.5-9.3,0.5L860.9,302.3L860.9,302.3z"/>
		<path class="st3" d="M877.8,296.7c-0.6-0.1-1.2-0.3-1.8-0.5c-1.3-0.5-2.4-1.1-3.2-1.7c0,0-0.1,0-0.2-0.1l0,0
			c-0.1-0.1-0.2-0.1-0.2-0.2c-0.4-0.4-0.8-0.4-0.9,0.3c0,0.1,0,0.2,0,0.3v0.1c0,2-4.2,3.7-9.4,3.7s-9.4-1.7-9.4-3.7c0,0,0,0,0-0.1
			s0-0.2,0-0.3c-0.1-0.7-0.5-0.6-0.8-0.3c-0.1,0.1-0.2,0.2-0.2,0.2l0,0c0,0.1-0.1,0.1-0.1,0.1c-0.8,0.7-1.9,1.3-3.2,1.7
			c-0.6,0.2-1.2,0.4-1.8,0.5c-3.6,0.8-6.8,0.1-7.3-1.4c0-0.1,0-0.1-0.1-0.1c0-0.1,0-0.2,0-0.3l0,0c0,0,0,0-0.1,0.1
			c0,0-0.1,0.1-0.3,0.3c-0.1,0.2-0.3,0.4-0.4,0.7c-0.1,0.2-0.1,0.4-0.1,0.7c0,0.1,0,0.2,0.1,0.3c0.1,0.4,0.3,0.8,0.8,1.2
			c0.5,0.4,1.2,0.8,2.2,1.1c0.4,0.1,0.8,0.2,1.1,0.4c1.5,0.4,3.2,0.8,5.1,1.1c0.4,0.1,0.8,0.1,1.2,0.2c0.3,0,0.5,0.1,0.8,0.1
			c0.7,0.1,1.4,0.2,2.1,0.3c2.8,0.3,5.9,0.5,9.2,0.5c0.3,0,1.1,0,1.6,0c0.3,0,0.6,0,1,0c3.3,0,6.4-0.2,9.2-0.5
			c0.7-0.1,1.4-0.2,2.1-0.3c0.3,0,0.5-0.1,0.8-0.1c0.4-0.1,0.8-0.1,1.2-0.2c1.9-0.3,3.7-0.7,5.1-1.1c0.4-0.1,0.8-0.2,1.1-0.4
			c1-0.4,1.7-0.7,2.2-1.1s0.7-0.8,0.8-1.2c0-0.1,0-0.2,0.1-0.3c0-0.2,0-0.5-0.1-0.7c-0.1-0.3-0.2-0.5-0.4-0.7
			c-0.1-0.2-0.2-0.3-0.3-0.3c0,0,0,0-0.1-0.1l0,0c0,0.1,0,0.2,0,0.3c0,0,0,0.1-0.1,0.1C884.6,296.8,881.5,297.5,877.8,296.7z"/>
		<path class="st3" d="M881.1,295.3c-0.9,0-1.8-0.1-2.6-0.3c-1.8-0.4-3.4-1.1-4.3-1.9c-0.6-0.5-0.9-1-0.9-1.5l0.2-1l0.6-2.3
			c2.4-9.3,4.7-17.9,7-25.3l1-2.9c0.9-2.5,1.6-4.3,2.4-6.1l0,0c1.5-3.5,3.1-7.1,4.9-10.6c2.9-5.3,5.9-10,9.3-14.4
			c14.4-18.4,30.5-28.6,47.8-30.3c1.8-0.3,3.9-0.5,6.3-0.5c25.3,0,45.9,21,45.9,46.8c0,17.4-9.3,33.2-24.4,41.3
			c-3.4,1.8-6.9,3.2-10.5,4.1c-1,0.2-2,0.4-3,0.6c-2.7,0.5-5.4,0.7-8,0.7c-1.2,0-2.3-0.1-3.3-0.1c-1.4-0.1-2.7-0.3-3.8-0.6l-1-0.9
			l-0.2,0.5c-0.7-0.3-1.4-0.6-2-0.9c-0.7-0.3-1.3-0.6-1.9-0.9c-9.3-4.8-9.3-10.3-9.3-10.5c0.1-0.4,6.1-12.5-2.5-19.1
			c-0.8-0.6-1.6-1-2.3-1.3c-1.2-0.5-2.5-0.7-3.9-0.7c-1.5,0-3.1,0.3-4.6,0.8c-0.7,0.3-1.4,0.6-2.1,0.9c-2.2,0.9-7,3.3-14.9,10.2
			c-7.2,6.3-11,13.3-13.3,18l-2.8,6.4l-0.4,0.7c-0.8,0.8-2.1,1-3,1L881.1,295.3z"/>
		<path class="st3" d="M952.8,198.7c-2.4,0-4.5,0.2-6.3,0.5c-11,1.1-28.8,6.2-47.5,30.1c-3.6,4.6-6.7,9.4-9.2,14.3
			c-1.8,3.6-3.4,7.1-4.9,10.5v0.1v-0.1c-0.8,1.8-1.5,3.5-2.1,5.2c-0.4,1.2-0.9,2.5-1.3,3.7c-2.8,9.2-5.3,18.6-7,25.3
			c-0.2,0.9-0.5,1.8-0.6,2.3c-0.1,0.3-0.2,0.6-0.2,0.6c0,0.1,0,0.1,0,0.2c0,0.4,0.3,0.8,0.7,1.2c0.8,0.7,2.3,1.4,4.1,1.8
			c1,0.2,2,0.3,2.8,0.3c1.2,0,2.2-0.3,2.6-0.7l0,0c0.1-0.1,0.1-0.1,0.1-0.2l0,0c0.1-0.1,0.2-0.4,0.3-0.6c0.6-1.5,1.9-4.6,2.7-6.3
			c2.7-5.8,6.6-12.3,13.4-18.2c7.9-6.9,12.8-9.4,15-10.3c0.7-0.3,1.4-0.6,2.1-0.9c3-1.1,6.3-1.1,8.9-0.1c0.8,0.3,1.6,0.7,2.5,1.4
			c9,6.9,2.7,19.5,2.7,19.5s-0.1,5.3,9,10c0.6,0.3,1.2,0.6,1.9,0.9c0.6,0.3,1.3,0.6,2,0.8c0.4,0.1,0.8,0.3,1.2,0.4
			c1.1,0.3,2.4,0.5,3.7,0.6c1,0.1,2.1,0.1,3.3,0.1c2.7,0,5.3-0.3,7.9-0.7c1-0.2,2-0.4,2.9-0.6c3.7-0.9,7.2-2.3,10.4-4
			c14.3-7.8,24.1-23.2,24.1-40.9C998.1,219.4,977.8,198.7,952.8,198.7z"/>
		<path class="st3" d="M845.3,262.7c-0.1-0.3-12.4-34.3-27.8-54.6c-6.9-9-14.5-19.4-19.7-26.5c1.4-1.2,2.3-1.9,3-2.9
			c8.4,10.8,21,28.7,22.3,30.5c14.1,21.1,23.2,52.8,23.3,53.1L845.3,262.7z"/>
		<path class="st3" d="M845.8,262.5c0,0-9-31.7-23.3-52.9c-1.2-1.8-13.8-19.8-21.4-30.5c-0.7,1-1.7,1.8-3,2.3
			c5.2,7.1,12.9,17.5,19.7,26.5C833.6,228.4,845.8,262.5,845.8,262.5z"/>
		<path class="st3" d="M782.9,168.7c-3.3-1.6-7.4-3.8-7.4-3.8l-1.4-0.8l1.6-0.2c0,0,2.2-0.3,4.9-0.3c1.5,0,3.1,0.1,4.6,0.4l-0.1,0.7
			l0.5,0.2c0,0.4,0.1,0.8,0.2,1.2c0.1,0.5,0.3,1.1,0.5,1.6l0.3,0.6l-1.1,0.1c-1.2,0.2-1.7,0.3-2.2,0.4l-0.2,0.1L782.9,168.7z"/>
		<path class="st3" d="M784.8,167.8l0.3-0.1c0.3,0,0.5-0.1,0.7-0.1c-0.2-0.5-0.4-1.1-0.5-1.6c-0.1-0.4-0.2-0.8-0.2-1.2
			c0-0.1,0-0.3,0-0.4c-4.2-0.8-9.3-0.1-9.3-0.1s4.2,2.2,7.4,3.8C783.6,168.1,784.2,167.9,784.8,167.8z"/>
		<path class="st3" d="M786.5,167.8c-0.3-0.6-0.5-1.2-0.6-1.9c-0.1-0.4-0.1-0.7-0.2-1.1c-0.4-3.7,1.1-8.5,1.8-10.3l1-2.6l0.4,1.6
			c0,0,1.1,4.4,1.9,7.9c-0.2,0.9-0.4,1.5-0.6,2.2l-0.5,2.1l-0.7,0.9l0.5,0.1l-0.1,0.4L789,168l-1.8,0.1L786.5,167.8z"/>
		<path class="st3" d="M787,167.6c0.2,0,0.4,0,0.5-0.1c0.5,0,1-0.1,1.4-0.1c0-0.1,0-0.2,0.1-0.4l0.1-0.5c0-0.3,0.1-0.7,0.2-1
			c0.1-0.5,0.2-1.1,0.3-1.6l0.1-0.5c0.2-0.7,0.4-1.3,0.6-1.9c-0.7-3.5-1.9-7.9-1.9-7.9s-0.2,0.4-0.4,1.1c-0.7,2.1-2.1,6.6-1.8,10.1
			c0,0.4,0.1,0.7,0.2,1.1C786.6,166.4,786.8,167,787,167.6z"/>
		<path class="st3" d="M800.3,171.5c-1.2-1.5-3.4-3.1-7.8-3.5l-2.8-0.1l-0.1-0.6l0.3-1.7l0.3-1.3c1.7-7.1,5-8.5,7.5-8.5
			c1.1,0,2.3,0.3,3.5,0.8c1.1,0.5,1.9,1,1.9,1l0.9,0.7l-1.1,0.3c-1.5,0.4-2.4,0.9-3,1.7c-1.4,1.8-0.5,4.6,0.5,7.5
			c0.3,0.9,0.6,1.9,0.8,2.8l-0.8,1L800.3,171.5z"/>
		<path class="st3" d="M790.2,167.4h0.2c0.5,0,0.9,0,1.3,0c0.4,0,0.6,0,0.9,0.1c4.6,0.4,6.9,2.1,8,3.5c0.1,0.1,0.2,0.3,0.3,0.4
			c0-0.2-0.1-0.4-0.1-0.5c-1-3.9-3.2-8.2-1.3-10.8c0.6-0.8,1.7-1.5,3.3-1.9c0,0-0.7-0.5-1.8-1c-2.8-1.2-8-2.1-10.2,6.5
			c0,0.2-0.1,0.3-0.1,0.5c-0.1,0.5-0.2,1.1-0.3,1.5s-0.1,0.8-0.2,1.2C790.2,167.1,790.2,167.2,790.2,167.4z"/>
		<path class="st3" d="M778.1,180.6l-0.4-0.9c-0.7-1.5-1.6-4.5-0.2-7.1c1.2-2.1,3.6-3.5,7.3-4.1l1.9-0.3l3.2-0.2h1.7
			c5.2,0.5,7.4,2,8.4,3.3c1,1.1,1.4,2.6,1.3,4c-0.1,0.8-0.2,1.2-0.4,1.6c-0.7,1.6-1.8,2.6-3.2,3.2c-0.8,0.3-1.8,0.5-2.8,0.5
			c-1.2,0-2.5-0.2-3.8-0.7c-0.9-0.3-1.8-0.7-2.7-1.1c-2-0.9-3.9-1.7-5.6-1.7c-0.8,0-1.4,0.2-1.9,0.5c-0.8,0.5-1.5,1.4-1.9,2.8
			l-0.4,1L778.1,180.6z"/>
		<path class="st3" d="M800.5,176.8c0.1-0.4,0.3-0.8,0.3-1.2c0-0.1,0-0.2,0-0.3c0.3-2.9-2-6-8.3-6.6c-0.2,0-0.5-0.1-0.7-0.1h-0.1
			c-0.5,0-1,0-1.6,0c-0.3,0-0.6,0-1,0c-0.5,0-0.9,0.1-1.5,0.1c-0.3,0-0.5,0.1-0.8,0.1c-0.5,0.1-1.1,0.1-1.7,0.2c-0.1,0-0.2,0-0.2,0
			c-9.7,1.6-7.8,8.2-6.8,10.5c0.2,0.5,0.4,0.8,0.4,0.8c0.6-1.6,1.3-2.5,2.2-3.1c2.8-1.8,6.8,0.8,10.7,2.2c2.4,0.9,4.6,0.9,6.2,0.2
			c1.3-0.5,2.2-1.4,2.8-2.6C800.4,177,800.4,176.9,800.5,176.8z"/>
		<path class="st3" d="M862.1,316.6c-3.9,0-9.9-0.8-13.6-1.9c-2.7-0.8-5.2-2.2-5.5-2.4c-0.9-0.5-1.6-1.1-2.3-1.8
			c-5.9-5.6-4.9-12.2-4.1-14l0.8-1.7l0.3,1.9c0.2,1,0.6,1.5,1.1,1.9c0.6,0.5,1.4,0.9,2.4,1.3l0.8,0.8l0.2-0.5
			c1.8,0.5,3.5,0.9,5.5,1.2l1.2,0.2c1.5,0.2,2.2,0.3,2.9,0.4c3,0.4,6.1,0.5,9.3,0.5h2.6c3.2,0,6.3-0.2,9.3-0.5l1.8-0.2l1.2,0.4
			l-0.1-0.5l1.1-0.2c2-0.3,3.7-0.7,5.3-1.1l1.3,0.1l-0.2-0.5c1-0.4,1.8-0.8,2.4-1.3c0.5-0.5,0.9-1,1-1.5l1.1-0.8
			c1,1.9,1.9,8.7-4,14.3c-0.6,0.6-1.3,1.1-2.1,1.6l-1.3,0.1l0.3,0.5c-0.9,0.5-1.8,0.9-2.7,1.3c-0.7,0.3-1.4,0.5-2.1,0.7
			C872,315.8,866,316.6,862.1,316.6L862.1,316.6L862.1,316.6z"/>
		<path class="st3" d="M881.3,311.8L881.3,311.8L881.3,311.8L881.3,311.8c0.8-0.5,1.5-1,2.1-1.6c5.9-5.6,4.6-12.2,3.8-13.6
			c0,0,0,0,0,0.1c0,0.2,0,0.4-0.1,0.6c-0.2,0.6-0.6,1.2-1.2,1.8c-0.6,0.5-1.5,1-2.5,1.4c-0.3,0.1-0.6,0.2-1,0.3l-0.2,0.1
			c-1.6,0.5-3.3,0.8-5.3,1.1c-0.4,0.1-0.8,0.1-1.2,0.2l-0.8,0.1c-0.7,0.1-1.4,0.2-2.2,0.3c-3,0.4-6.2,0.5-9.3,0.5c-0.3,0-0.7,0-1,0
			c-0.5,0-1.3,0-1.6,0c-3.2,0-6.3-0.2-9.3-0.5c-0.7-0.1-1.5-0.2-2.2-0.3l-0.8-0.1c-0.4-0.1-0.8-0.1-1.2-0.2
			c-1.9-0.3-3.7-0.7-5.3-1.1l-0.3-0.1c-0.3-0.1-0.6-0.2-0.9-0.3c-1.1-0.4-1.9-0.8-2.5-1.4c-0.6-0.5-1-1.1-1.2-1.8
			c0-0.1-0.1-0.3-0.1-0.5c-0.8,1.8-1.8,8,3.9,13.5c0.7,0.6,1.4,1.2,2.2,1.7c0.2,0.2,2.6,1.6,5.3,2.4c3.7,1,9.6,1.8,13.5,1.8
			s9.8-0.8,13.5-1.8c0.7-0.2,1.4-0.4,2-0.7c0.9-0.3,1.8-0.8,2.7-1.2c0.3-0.2,0.6-0.3,0.8-0.4C881.2,311.9,881.2,311.8,881.3,311.8z"
			/>
		<path class="st3" d="M862.1,336.1c-1.6,0-6.3,0-10.5-3.1c-3.5-2.6-4.1-7.8-4.2-9.3l-0.1-1.1l0.9,0.6c3.8,2.2,8.3,3.2,13.7,3.2
			c0,0,0,0,0.1,0c2.5,0,8.4,0,13.8-3.1l0.9-0.7l0.1,1.1c-0.1,1.1-0.7,6.7-4.2,9.3C868.5,336.1,863.7,336.1,862.1,336.1L862.1,336.1
			L862.1,336.1z"/>
		<path class="st3" d="M862.2,327h-0.3c-5.5,0-10.1-1-13.8-3.2c-0.1,0-0.1-0.1-0.2-0.1c0.1,1.3,0.7,6.5,4,8.9c3.7,2.8,7.9,3,10.1,3
			l0,0l0,0l0,0l0,0c2.2,0,6.4-0.2,10.1-3c3.3-2.5,3.9-7.6,4-8.9c-0.1,0-0.1,0.1-0.2,0.1c-5.5,3.1-11.5,3.2-13.8,3.2H862.2z"/>
		<path class="st3" d="M836.6,379.1c0.4-2.5,1.2-6.3,2.7-10.1c0.5-1.2,1-2.4,1.7-3.5c1.6-2.9,5.3-6.5,6.4-7.6l0.2-0.2l1.1,0.1h1.1
			c1.8,0,3.5-0.3,5.1-1c3.5-1.5,5.8-5.6,6.6-11.9l1.1-0.9l0.2,1.6c0.2,1.5,0.6,3.1,1.1,4.6c0.6,1.5,0.8,3,0.7,4.9
			c0,0.9,0,1.3-0.1,1.8c-0.1,0.9-0.3,1.9-0.5,2.8c-0.3,0.9-0.6,1.8-1,2.7l-0.8,1.6l-0.6,1l-1.2,1.7c-0.6,0.7-1.2,1.5-1.9,2.3
			c-0.6,0.6-1.1,1.2-1.7,1.8c-0.5,0.5-1,1-1.6,1.4c-1.3,1.1-2.6,2-4,2.9c-0.8,0.5-1.6,1-2.3,1.4c-1.5,0.9-2.9,1.6-4.2,2.1
			c-2.2,1-4.1,1.6-5.5,2c-1.3,0.4-2.1,0.5-2.1,0.5l-0.7,0.1L836.6,379.1z"/>
		<path class="st3" d="M848.6,376.1c0.8-0.4,1.5-0.9,2.3-1.4c1.3-0.9,2.7-1.8,3.9-2.8c0.5-0.5,1.1-0.9,1.6-1.4
			c0.6-0.6,1.1-1.2,1.7-1.7l0,0c0.7-0.8,1.3-1.5,1.9-2.3c0.3-0.4,0.5-0.7,0.8-1c0.1-0.2,0.3-0.4,0.4-0.6c0.1-0.2,0.2-0.4,0.3-0.5
			s0.2-0.3,0.3-0.5c0.2-0.4,0.4-0.7,0.6-1.1c0.1-0.2,0.2-0.3,0.2-0.5c0.4-0.9,0.8-1.8,1-2.6c0.3-1,0.5-1.9,0.5-2.7
			c0-0.4,0.1-0.9,0.1-1.3c0-0.1,0-0.3,0-0.4c0,0,0,0,0-0.1c0.1-1.6,0-3.1-0.5-4.2c-0.1-0.2-0.1-0.4-0.2-0.5
			c-0.5-1.5-0.9-3.1-1.1-4.7c-0.1-0.5-0.2-1.1-0.2-1.6c0,0.3-0.1,0.6-0.1,0.9c-0.8,6.5-3.2,10.8-6.9,12.3c-1.6,0.7-3.4,1-5.3,1
			c-0.4,0-0.8,0-1.1,0s-0.6-0.1-0.8-0.1c-2,2-5,5.1-6.3,7.5c-0.6,1.1-1.2,2.3-1.7,3.5c-1.6,3.9-2.3,7.8-2.7,9.9
			c-0.2,1-0.2,1.6-0.2,1.6s0.8-0.2,2-0.5l0,0c1.3-0.4,3.3-1,5.4-2C845.7,377.7,847.2,377,848.6,376.1z"/>
		<path class="st3" d="M877.7,393.4c-1.2-0.4-3.2-1.1-5.4-2.2c-0.7-0.3-1.4-0.7-2.2-1.1l-1.9-1.1l-1.1-0.7c-0.6-0.4-1.3-0.9-1.9-1.3
			c-1.2-0.9-2.4-2.2-3.8-4l0.2-1l0.8-1.2l0.8-1.4l0.9-1.8c0.9-2.1,1.5-4,1.8-5.1l0.3-1.1l0.7,0.9c1,0.9,1.9,1.6,2.8,2.3
			c1.2,0.9,2.5,1.7,4,2.5l1.6,0.8l1.1,1.6c1,2,1.8,4.3,2.4,6.9c0.9,3.8,1.1,6.8,1.1,6.9v0.7L877.7,393.4z"/>
		<path class="st3" d="M875.8,379.8c-0.3-0.5-0.5-1-0.8-1.4c-0.5-0.3-1.1-0.5-1.6-0.8c-1.5-0.8-2.9-1.6-4.1-2.5
			c-0.9-0.7-1.8-1.4-2.7-2.3c-0.1,0-0.1-0.1-0.2-0.1c-0.3,1.2-0.9,3.1-1.8,5.2c-0.3,0.6-0.6,1.2-0.9,1.8c-0.2,0.3-0.3,0.6-0.5,0.9
			c-0.1,0.2-0.2,0.3-0.3,0.5c-0.3,0.4-0.5,0.8-0.8,1.3c-0.1,0.1-0.2,0.2-0.3,0.4c0,0,0,0,0,0.1c1.3,1.6,2.5,3,3.8,3.9
			c0.6,0.5,1.2,0.9,1.8,1.3c0.3,0.2,0.7,0.5,1.1,0.7c0.6,0.4,1.3,0.7,1.9,1.1c0.7,0.4,1.5,0.8,2.1,1.1c2.2,1,4.2,1.7,5.4,2.1
			c0.8,0.3,1.3,0.4,1.3,0.4s-0.1-3-1-6.8C877.6,384.4,876.8,382,875.8,379.8z"/>
		<path class="st3" d="M842.4,393.3c0-0.3,0.3-6.3,2.7-12.1l1.2-2.9c1-0.6,1.8-1.1,2.6-1.5s1.6-0.9,2.3-1.4c1.4-0.9,2.8-1.9,4-2.9
			c0.5-0.5,1.1-1,1.6-1.5c0.6-0.6,1.2-1.2,1.7-1.8c0.7-0.8,1.4-1.6,1.9-2.3l0.5-0.6h0.9l1,1.5c1,1.3,1.9,2.4,2.9,3.5
			c-0.1,1.3-0.6,3.6-1.9,6.4c-0.2,0.6-1.3,2.6-1.3,2.6l-1.1,1.7l-0.6,0.9c-0.4,0.6-0.8,1.1-1.3,1.6c-0.9,1-2.1,2-3.6,3.1l-1.5,1
			l-1.3,0.8c-1.3,0.7-2.5,1.3-3.6,1.9c-3.6,1.7-6.6,2.6-6.6,2.6l-0.7,0.2L842.4,393.3z"/>
		<path class="st3" d="M852.9,388.9c0,0,0.1,0,0.1-0.1c0.4-0.2,0.8-0.5,1.2-0.7c0.5-0.3,1-0.6,1.4-1c1.3-1,2.5-2,3.5-3
			c0.5-0.5,0.9-1.1,1.3-1.6c0.2-0.3,0.4-0.6,0.6-0.9c0.3-0.4,0.5-0.8,0.8-1.2c0.1-0.2,0.2-0.3,0.3-0.5c0.2-0.3,0.3-0.6,0.5-0.9
			c0.3-0.6,0.6-1.1,0.8-1.7c1.2-2.6,1.8-4.9,2-5.8c-1-1.1-2-2.2-2.9-3.5c-0.4-0.5-0.7-1-1-1.5c-0.2,0.2-0.3,0.5-0.5,0.7
			c-0.5,0.7-1.2,1.5-2,2.3c-0.6,0.6-1.1,1.2-1.7,1.8c-0.5,0.5-1.1,1-1.7,1.5c-1.2,1-2.6,2-4,2.9c-0.8,0.5-1.6,1-2.3,1.4
			c-0.8,0.4-1.6,0.9-2.4,1.3c-0.4,0.8-0.8,1.8-1.2,2.9c-2.4,5.8-2.7,11.9-2.7,11.9s2.9-0.9,6.5-2.6
			C850.5,390.1,851.7,389.5,852.9,388.9z"/>
		<path class="st3" d="M883.3,380.8c-1.6-0.5-4.1-1.3-6.8-2.5c-0.9-0.4-1.9-0.9-2.8-1.4c-1.4-0.7-2.7-1.5-4-2.5
			c-1-0.8-2-1.6-2.9-2.4l-0.7-0.7c-1.2-1.3-2.2-2.5-3.1-3.7l-1.2-1.8l0.4-1.4c0.3-0.6,0.6-1,0.8-1.4c0.7-1.4,1-2.3,1.3-3.2
			c0.3-1,0.5-1.9,0.5-2.9c0-0.5,0.1-2.8,0.1-2.8v-1l0.8,0.5c1.2,1.6,2.4,2.6,3.8,3.2c1.6,0.6,3.3,1,5,1l0.1,0.6h0.8
			c2.6,2.4,4.4,4.6,5.7,7c0.7,1.1,1.2,2.3,1.7,3.5s0.9,2.4,1.2,3.5c1.3,4.4,1.7,8.1,1.7,8.2l0.1,0.7L883.3,380.8z"/>
		<path class="st3" d="M882.2,369.2c-0.5-1.2-1-2.4-1.7-3.5c-1.5-2.7-3.7-5-5.6-6.8c-0.2-0.2-0.3-0.3-0.5-0.5c-1.9,0-3.6-0.4-5.3-1
			c-1.5-0.6-2.8-1.7-3.8-3.2l0,0c0,0.3,0,0.7,0,1v0.4c0,0.5,0,0.9-0.1,1.4c-0.1,1-0.3,2-0.6,3c-0.3,0.9-0.6,1.9-1.1,2.8l-0.3,0.5
			c-0.2,0.4-0.4,0.8-0.6,1.1l0,0c-0.2,0.3-0.3,0.6-0.5,0.9c0,0,0,0.1-0.1,0.1c0.4,0.5,0.8,1.1,1.2,1.7c0.8,1.2,1.9,2.4,3,3.7
			c0.2,0.2,0.5,0.5,0.7,0.7c0.9,0.8,1.8,1.6,2.8,2.4c1.3,0.9,2.6,1.7,4,2.4c0.9,0.5,1.9,0.9,2.8,1.4c2.7,1.2,5.2,2.1,6.8,2.5
			c1,0.3,1.7,0.5,1.7,0.5s-0.3-3.7-1.7-8.1C883.1,371.5,882.7,370.4,882.2,369.2z"/>
		<path class="st3" d="M862.1,326.3c-5.5,0-10-1-13.6-3.1l-0.8-0.5c-4.4-3.1-4.8-8.5-4.8-8.7v-1l0.8-0.1c0.7,0.4,2.7,1.4,4.8,2
			c3.7,1,9.8,1.8,13.7,1.9c3.9,0,9.9-0.8,13.7-1.9c0.7-0.2,1.3-0.4,2.1-0.7c0.9-0.3,1.8-0.7,2.7-1.2l1-0.5l-0.2,1.5
			c0,0.2-0.4,6.2-5.6,9.2C872.1,325.3,867.6,326.3,862.1,326.3L862.1,326.3L862.1,326.3L862.1,326.3z"/>
		<path class="st3" d="M880.8,313.9c0-0.2,0-0.3,0-0.5c-0.9,0.5-1.8,0.9-2.7,1.3c-0.8,0.3-1.5,0.5-2.2,0.7c-3.8,1-9.8,1.9-13.8,1.9
			l0,0l0,0c-4,0-10.1-0.8-13.8-1.9c-2-0.6-3.9-1.5-4.9-2.1c0,0.2,0,0.4,0.1,0.6c0,0,0.3,5.3,4.5,8.3c0.3,0.2,0.5,0.4,0.8,0.5
			c4.9,2.8,10.4,3,13.3,3l0,0c0,0,0,0,0.1,0s0,0,0.1,0l0,0c2.9,0,8.4-0.2,13.3-3C880.5,319.9,880.8,313.9,880.8,313.9z"/>
		<path class="st3" d="M930.2,306.3c-0.5,0-1.1-0.1-1.7-0.4c-1.5-0.7-2.7-1.8-3.8-3.2c-2-2.7-2.8-6.1-2.6-10.3
			c0.3-5.3,3.2-10,7.7-12.6l0.6-0.3l0.8,0.3c0.3,0.9,1.2,3.4,4.4,6.1l1,0.8l-1.3,0.1c-3.6,0.8-6,3.6-6.2,7c-1.2,1-2,1.8-2.5,2.5
			c0.4-0.5,1-1,1.8-1.4c0.8-0.3,1.5-0.4,2.2-0.4c1.8,0.1,3.3,0.8,4.3,2s1.6,2.7,1.5,4.3c0,0.5-0.2,1.1-0.4,1.7
			c-0.9,2.3-3.1,3.8-5.5,3.8H930.2z"/>
		<path class="st3" d="M930.8,295c-0.8,0-1.5,0.1-2.2,0.4c-4.9,2.4,0,6.8,0,6.8s-7-3.9-0.1-8.3c0-0.1,0-0.1,0-0.2
			c0.2-3.7,2.9-6.7,6.4-7.5h0.3c-2.9-2.4-4.1-4.8-4.6-6.3l-0.6,0.3c-4.2,2.5-7.2,6.9-7.5,12.2c-0.2,3.7,0.5,7.2,2.5,9.9
			c0.9,1.2,2,2.3,3.6,3c0.5,0.2,1,0.3,1.6,0.4c2.4,0.1,4.5-1.4,5.3-3.5c0.2-0.5,0.3-1,0.3-1.6C936.1,297.7,933.8,295.2,930.8,295z"
			/>
		<path class="st3" d="M843,295.3c-1,0-2.3-0.2-3-0.9l-0.6-1l-2.7-6.3c-2.2-4.7-6.1-11.7-13.2-18c-7.9-6.9-12.7-9.3-14.9-10.2
			c-0.7-0.3-1.4-0.6-2.1-0.9c-1.5-0.5-3.1-0.8-4.6-0.8c-1.4,0-2.7,0.2-3.9,0.7c-0.8,0.2-1.6,0.7-2.4,1.3c-8.6,6.5-2.6,18.7-2.5,18.9
			c0.1,0.5,0,5.9-9.3,10.7c-0.6,0.3-1.2,0.6-1.9,0.9s-2.1,0.9-2.1,0.9l-1.2,0.4c-1.1,0.3-2.4,0.5-3.8,0.6c-1,0.1-2.1,0.1-3.3,0.1
			c-2.6,0-5.3-0.2-8-0.7c-1-0.2-2-0.4-3-0.6c-3.6-0.9-7.2-2.3-10.5-4.1c-15-8.1-24.4-24-24.4-41.3c0-25.8,20.6-46.8,45.9-46.8
			c2.4,0,4.5,0.2,6.4,0.5c17.3,1.7,33.4,11.9,47.8,30.3c3.4,4.3,6.4,9,9.3,14.4c1.8,3.6,3.4,7.1,4.9,10.6l-0.2,0.1l0.2-0.1
			c0.8,1.8,1.5,3.6,2.1,5.2c0.5,1.5,0.9,2.6,1.3,3.7c2.3,7.3,4.6,15.8,7,25.3l0.8,2.9c0,0.8-0.1,1.4-0.9,2c-1,0.8-2.5,1.5-4.3,1.9
			c-0.9,0.2-1.8,0.3-2.6,0.3L843,295.3z"/>
		<path class="st3" d="M792.7,278.3c0,0-6.4-12.6,2.7-19.5c0.9-0.7,1.7-1.1,2.5-1.4c2.6-1,5.9-0.9,8.9,0.1c0.8,0.3,1.5,0.6,2.1,0.9
			c2.2,0.9,7.1,3.4,15,10.3c6.8,5.9,10.6,12.4,13.4,18.2c0.8,1.7,2.1,4.9,2.7,6.3c0.1,0.3,0.2,0.5,0.3,0.6l0,0
			c0,0.1,0.1,0.1,0.1,0.2l0,0c0.5,0.5,1.4,0.7,2.6,0.7c0.8,0,1.8-0.1,2.8-0.3c1.8-0.4,3.3-1,4.1-1.8c0.5-0.4,0.7-0.8,0.7-1.2
			c0-0.1,0-0.1,0-0.2c0,0-0.1-0.3-0.2-0.6c-0.2-0.6-0.4-1.4-0.6-2.3c-1.7-6.7-4.2-16.1-7-25.3c-0.4-1.2-0.8-2.4-1.3-3.7
			c-0.6-1.7-1.3-3.4-2.1-5.2v0.1v-0.1c-1.5-3.4-3.1-7-4.9-10.5c-2.6-4.9-5.6-9.7-9.2-14.3c-18.7-23.9-36.4-29-47.5-30.1
			c-1.8-0.4-3.9-0.5-6.3-0.5c-25.1,0-45.4,20.7-45.4,46.3c0,17.7,9.8,33.1,24.1,40.9c3.3,1.8,6.8,3.1,10.4,4c1,0.2,1.9,0.4,2.9,0.6
			c2.6,0.5,5.2,0.7,7.9,0.7c1.2,0,2.3-0.1,3.3-0.1c1.4-0.1,2.6-0.3,3.7-0.6c0.4-0.1,0.8-0.3,1.2-0.4c0.7-0.3,1.4-0.5,2-0.8
			c0.7-0.3,1.3-0.6,1.9-0.9C792.8,283.6,792.7,278.3,792.7,278.3z"/>
		<path class="st3" d="M793.8,306.3c-2.4,0-4.6-1.5-5.5-3.8c-0.1-0.4-0.3-1-0.4-1.7c-0.2-3.2,2.3-6,5.5-6.2c0,0,0,0,0.1,0
			c1,0,1.7,0.1,2.4,0.4c0.7,0.4,1.3,0.8,1.7,1.2c-0.5-0.6-1.2-1.2-2.1-1.8c-0.4-4-2.9-6.9-6.2-7.6l-1.3-0.1l0.7-0.8
			c3.2-2.7,4.1-5.1,4.4-6.1l0.2-0.6l1.2,0.6c4.6,2.7,7.5,7.4,7.8,12.6c0.2,4.2-0.6,7.6-2.6,10.3c-1.1,1.4-2.3,2.5-3.8,3.2
			c-0.7,0.3-1.2,0.4-1.8,0.4H793.8z"/>
		<path class="st3" d="M794.3,280.2l-0.7-0.3c-0.4,1.5-1.7,3.9-4.6,6.3h0.3c3.5,0.8,6.2,3.8,6.4,7.5c0,0.1,0,0.1,0,0.2
			c6.9,4.4-0.1,8.3-0.1,8.3s4.9-4.4,0-6.8c-0.7-0.3-1.5-0.4-2.2-0.4c-3,0.2-5.2,2.7-5,5.7c0,0.5,0.2,1.1,0.3,1.6
			c0.8,2.1,2.9,3.6,5.3,3.5c0.6,0,1.1-0.2,1.6-0.4c1.5-0.8,2.7-1.9,3.6-3c2-2.7,2.7-6.3,2.5-9.9
			C801.5,287.2,798.5,282.7,794.3,280.2z"/>
		<path class="st3" d="M861.4,421v-0.5c0,0-1.1-4.4-2.7-7.9c-0.6-1.2-1.3-2.2-2-3.2c-1.1-1.6-2.2-3.1-2.6-5.4v-0.4l0.3-0.7
			c3-1.6,5-2.9,6.6-4.3c2.8,1.7,5.2,3.2,8.1,4.6l0.4,0.2l0.3,0.6c-0.5,2.4-1.5,3.8-2.6,5.3c-0.7,1-1.4,2-2,3.2
			c-1.3,2.8-2.3,6.1-2.6,7.4l-0.2,1L861.4,421z"/>
		<path class="st3" d="M861.4,399.1L861.4,399.1h-0.2c-1.7,1.4-3.7,2.8-6.2,4.1c-0.2,0.1-0.4,0.2-0.5,0.3c0,0.2,0,0.4,0.1,0.5
			c0.5,3.5,3,5.2,4.5,8.4c1.7,3.6,2.8,8.1,2.8,8.1v0.5c0,0,0.1-0.4,0.2-1.1c0.3-1.3,1.3-4.6,2.6-7.5c1.4-3.1,3.8-4.8,4.4-8
			c0-0.1,0-0.2,0.1-0.3c-0.2-0.1-0.3-0.1-0.4-0.2C865.8,402.3,863.4,400.8,861.4,399.1z"/>
		<path class="st3" d="M873.1,404.9c-0.8-0.3-2.3-0.9-4-1.7c-2.8-1.4-5.3-2.9-7.2-4.5c0.3-1.1,0.6-1.4,0.9-1.8
			c2.3-2.6,3.9-5.5,4.7-7.1c0.1,0,0.2,0,0.3,0c1.2,0,1.8,0.3,2.3,0.6l1.1,0.6l0.4,1.4l0.5-0.2c1.2,2.8,1.8,5.8,2.1,7.8
			c0.4,2.8,0.4,4.8,0.4,4.8v0.7L873.1,404.9z"/>
		<path class="st3" d="M871.5,392.3c-0.1-0.3-0.2-0.6-0.3-0.8c-0.5-0.2-0.9-0.4-1.4-0.7c-0.6-0.3-1.2-0.6-1.7-1L868,390
			c-0.8,1.6-2.4,4.6-4.8,7.2c-0.3,0.4-0.7,0.7-1,1c2.3,1.9,4.9,3.4,7.1,4.5c1.7,0.8,3.1,1.4,4,1.7c0.5,0.2,0.7,0.3,0.7,0.3
			s0-2-0.4-4.7C873.3,397.6,872.7,394.9,871.5,392.3z"/>
		<path class="st3" d="M848.1,404.6c0-0.2,0-5.4,1.7-10.5c0.3-1,0.9-2.4,1.3-3.1c1-0.8,1.5-1.1,2.1-1.4l1.4-0.8l1.5-1
			c1.5-1.1,2.7-2.1,3.6-3.1c0.3-0.4,0.6-0.8,0.9-1.2c2.2,1.7,3.4,3,4.5,3.8c0.6,0.5,1.2,0.9,1.9,1.3l0.5,0.3v0.6
			c-1,1.9-2.5,4.7-4.8,7.3c-0.3,0.4-0.7,0.7-1,1.1l-0.8,0.7c-1.7,1.5-3.7,2.8-6.1,4.1c-3.3,1.7-5.9,2.6-5.9,2.6l-0.7,0.2
			L848.1,404.6L848.1,404.6z"/>
		<path class="st3" d="M860.5,398c0.3-0.2,0.5-0.5,0.8-0.7c0.4-0.3,0.7-0.7,1-1c2.4-2.6,3.9-5.6,4.7-7.1v-0.1
			c-0.1,0-0.2-0.1-0.3-0.2c-0.7-0.4-1.3-0.9-1.9-1.4c-1.2-0.9-2.4-2.2-3.8-3.9c-0.3,0.4-0.6,0.8-1,1.2c-0.9,1.1-2.2,2.1-3.7,3.2
			c-0.5,0.4-1,0.7-1.5,1c-0.4,0.3-0.8,0.5-1.3,0.8l-0.1,0.1c-0.6,0.3-1.2,0.7-1.8,1c-0.3,0.7-0.9,2.3-1.3,3.3
			c-1.7,5.2-1.7,10.4-1.7,10.4s2.7-0.9,5.9-2.6C856.5,401,858.6,399.7,860.5,398C860.5,398.1,860.5,398,860.5,398z"/>
		<path class="st3" d="M878,262.4c0.1-0.3,9.2-32,23.3-53.1c1.2-1.7,12.5-17.8,20.1-28.7l1.3-1.9c1.5,0.9,2.5,1.6,3.6,2.1
			c-5,7.9-12.6,18.3-19.5,27.3c-15.5,20.3-27.7,54.3-27.9,54.6L878,262.4z"/>
		<path class="st3" d="M901.8,209.6c-14.2,21.2-23.3,52.9-23.3,52.9s12.2-34.1,27.9-54.7c6.9-9,14.5-19.4,19.7-26.5
			c-1.3-0.5-2.3-1.2-3-2.3C915.6,189.9,903,207.8,901.8,209.6z"/>
		<path class="st3" d="M941.1,168.7c-0.5-0.1-1-0.3-1.6-0.3l-0.7-0.1l-0.7-0.8c0.2-0.5,0.4-1,0.5-1.5c0.1-0.4,0.2-1.6,0.2-1.6
			l0.4-0.5c1.5-0.3,3.1-0.4,4.6-0.4c2.7,0,4.9,0.3,4.9,0.3l1.6,0.2l-1.4,0.8c0,0-4.2,2.2-7.4,3.8l-0.2,0.1H941.1z"/>
		<path class="st3" d="M939.5,167.8c0.6,0.1,1.2,0.2,1.7,0.4c3.3-1.5,7.4-3.8,7.4-3.8s-5.1-0.7-9.3,0.1c0,0.1,0,0.3,0,0.4
			c0,0.4-0.1,0.8-0.2,1.2c-0.1,0.6-0.3,1.1-0.5,1.6c0.2,0,0.5,0.1,0.7,0.1H939.5z"/>
		<path class="st3" d="M937.2,168.1l0.1-0.5l-0.4,0.5l-1.6-0.1v-0.6l-0.6-0.1l-0.3-1.6l-0.3-1.6c-0.3-1.2-0.5-1.8-0.7-2.4
			c0.7-3.8,1.8-8.2,1.8-8.2l0.4-1.6l1,2.6c0.7,1.9,2.2,6.6,1.8,10.3c0,0.4-0.1,0.8-0.2,1.1c-0.2,0.7-0.4,1.3-0.6,1.9l-0.2,0.4
			L937.2,168.1z"/>
		<path class="st3" d="M934.7,163.9c0.1,0.5,0.3,1.1,0.3,1.6c0.1,0.4,0.1,0.7,0.2,1l0.1,0.5c0,0.1,0,0.3,0.1,0.4
			c0.5,0,0.9,0.1,1.4,0.1c0.1,0,0.3,0,0.5,0.1c0.2-0.5,0.5-1.1,0.6-1.8c0.1-0.3,0.1-0.7,0.2-1.1c0.4-3.5-1-8.1-1.8-10.1
			c-0.2-0.7-0.4-1.1-0.4-1.1s-1.1,4.4-1.9,7.9c0.2,0.6,0.4,1.2,0.6,1.9L934.7,163.9z"/>
		<path class="st3" d="M923.3,171.2L923,171c0.3-1.3,0.6-2.2,0.9-3.1c1-3,1.9-5.8,0.5-7.5c-0.6-0.8-1.6-1.4-3-1.7l-1.1-0.3l0.9-0.7
			c0,0,0.8-0.6,1.9-1c1.2-0.5,2.4-0.8,3.5-0.8c2.5,0,5.8,1.3,7.3,7.7l0.5,2.1l0.3,1.8l-0.5,0.5h-1.5c-5.3,0.5-7.5,2.1-8.5,3.3
			L923.3,171.2z"/>
		<path class="st3" d="M923.5,170.8c0,0.2-0.1,0.4-0.1,0.5c0.1-0.1,0.2-0.3,0.3-0.4c1.1-1.4,3.4-3.1,8-3.5c0.3,0,0.5,0,0.9-0.1
			c0.4,0,0.8,0,1.3,0h0.2c0-0.2,0-0.3-0.1-0.5c-0.1-0.4-0.1-0.8-0.2-1.2c-0.1-0.5-0.2-1-0.3-1.5c0-0.2-0.1-0.3-0.1-0.5
			c-2.1-8.6-7.4-7.7-10.2-6.5c-1.1,0.5-1.8,1-1.8,1c1.7,0.4,2.7,1.1,3.3,1.9C926.8,162.6,924.6,166.8,923.5,170.8z"/>
		<path class="st3" d="M945.2,180.6c-0.5-1.4-1.1-2.3-1.9-2.8c-0.5-0.4-1.2-0.5-1.9-0.5c-1.6,0-3.5,0.8-5.6,1.7
			c-0.9,0.4-1.8,0.8-2.7,1.1c-1.3,0.5-2.6,0.7-3.8,0.7c-1,0-2-0.2-2.8-0.5c-1.4-0.6-2.4-1.6-3-2.9c-0.3-0.7-0.4-1.2-0.5-1.6
			c-0.2-1.7,0.3-3.1,1.3-4.3s3.2-2.8,7.5-3.2l2.5-0.1l2.4,0.1l2.5,0.3c4,0.6,6.4,2,7.6,4.2c1.4,2.6,0.5,5.6-0.2,7.1l-0.4,0.9
			l-0.6,0.9L945.2,180.6z"/>
		<path class="st3" d="M932.9,179.5c3.8-1.4,7.9-4,10.7-2.2c0.9,0.6,1.6,1.5,2.2,3.1c0,0,0.2-0.3,0.4-0.8c1-2.3,3-8.9-6.8-10.5
			c-0.1,0-0.2,0-0.2,0c-0.6-0.1-1.1-0.1-1.7-0.2c-0.3,0-0.5-0.1-0.8-0.1c-0.5,0-1-0.1-1.5-0.1c-0.3,0-0.6,0-1,0c-0.6,0-1.1,0-1.6,0
			h-0.1c-0.3,0-0.5,0-0.7,0.1c-6.3,0.6-8.6,3.8-8.3,6.6c0,0.1,0,0.2,0,0.3c0.1,0.4,0.2,0.8,0.3,1.2c0,0.1,0.1,0.2,0.1,0.3
			c0.5,1.2,1.5,2.1,2.8,2.6C928.3,180.3,930.5,180.3,932.9,179.5z"/>
		<path class="st3" d="M812.9,379.9c-6.7,0-8.4-4.4-8.8-5.8l-0.2-1l0.5-1.3l-0.5-0.1c0.3-2.5,2.3-4.3,4.8-4.3c1.5,0,3,0.6,3.9,1.7
			c0.8,0.9,1.1,2,0.9,3.2c0,0,0.2-0.3,0.3-0.4c0.9-1.3,1.9-3.5,1.9-6.9c0-5.9-3.7-10.8-6.8-13.9c-1.3-1.4-2.9-3.1-4.3-4.9
			c-5.7-7.5-7.4-15-4.7-19.5c0.2-0.4,0.4-0.8,0.8-1.3c2.3-3.6,6.7-5.8,11.3-5.8c2.8,0,5.6,0.8,8.1,2.4c4.2,2.6,11.4,9.8,17.2,15.5
			c3.7,3.7,7.2,7.2,8.1,7.6c0.7,0.3,1.4,0.5,2,0.5c1,0,1.7-0.5,2-1.4c0.3-0.8,0.4-1.9,0.5-3.3c0-0.9,0-1.7,0-2.3
			c-0.1-1.7-0.3-3.6-0.5-5l-0.2-1.7l1,0.2c0.4,0.5,0.8,0.8,1.2,1.1c2.6,1.9,5.8,3,9.5,3.1c0.6,1.6,0.7,4.7,0.5,7.4l-0.2,1.4
			c-0.5,4.3-2.1,9.9-6.5,11.7c-1.6,0.6-3.3,1-5,1h-1.1c-4-0.3-7.5-2.1-9-2.9c-1.4-0.7-2.5-1.3-3.6-2c-7.5-4.4-14.2-10.6-16-12.5
			l-1.2-1l6,5.9c1,1,2,2.8,2.5,4.6c1,3.8,1.4,7.3,1.1,10.3c-0.4,4.2-1.9,8.9-4.1,12.3C822.5,375.9,819,379.9,812.9,379.9z"/>
		<path class="st3" d="M811.3,334.1c0.5-0.3,1-0.3,1.5-0.2c1,0.3,2.6,1.7,4.2,3.1c0.7,0.6,1.4,1.3,2,1.8c0.4,0.3,0.8,0.7,1.3,1.1
			l0,0c3,3,9.2,8.5,15.9,12.4c1.1,0.6,2.2,1.2,3.3,1.8l0,0c1.3,0.7,4.9,2.7,9,3c1.9,0.1,3.9-0.1,5.9-0.9c4.1-1.7,5.6-6.8,6.2-11.3
			c0.1-0.5,0.1-0.9,0.1-1.4c0.2-2.7,0.1-5.7,0-6.8c-2.2-0.1-6.2-0.6-9.8-3.2c-0.5-0.4-0.9-0.8-1.3-1.2c0.1,0.5,0.2,1.1,0.1,1.1
			c0.2,1.4,0.5,3.4,0.5,5.1c0,0.6,0,1.4,0,2.3l0,0c0,1.3-0.2,2.5-0.5,3.5c-0.9,2.2-3,2-4.7,1.2c-2.4-1-18.3-18.8-25.4-23.2
			c-7.1-4.4-15.2-2-18.7,3.3c-0.3,0.5-0.6,0.9-0.8,1.3c-2.7,4.4-0.8,11.9,4.1,18.2c0.1,0.2,0.3,0.4,0.4,0.6l0.1,0.1
			c1.4,1.8,2.9,3.5,4.3,4.9c3.1,3.1,6.9,8.1,6.9,14.3c0,3.2-0.9,5.5-2,7.1v0.1c-1.1,1.8-2.2,2.6-3.2,2.9c-1.8,0.6-3.2-0.5-3.2-0.5
			s1.2,0.4,2.4,0.2c0.9-0.2,1.8-0.6,2.5-1.8c0.1-0.3,0.2-0.5,0.3-0.8c0.4-2.6-2-4.3-4.3-4.3c-2.2,0-4,1.7-4.3,3.8c0,0.1,0,0.3,0,0.5
			s0,0.5,0,0.7c0,0.1,0,0.2,0,0.3c0,0.2,0.1,0.3,0.1,0.4s0,0.2,0.1,0.2c0.7,2.6,3.1,5.4,8.3,5.4c6.2,0,9.5-4.2,11-7.1
			c2.3-3.7,3.7-8.2,4-12.1c0.3-3.6-0.3-7.3-1.1-10.1c-0.6-1.9-1.5-3.5-2.4-4.3c-0.2-0.2-0.5-0.5-0.9-0.8c-0.7-0.7-1.4-1.4-2-2
			c-1.6-1.6-3.2-3.2-4.5-4.5c-1.4-1.4-2.4-2.4-2.8-2.7c-1-0.7-1.8-0.9-2.4-0.8c-0.8,0.2-1.3,1.1-1.4,2.6c-0.1,1.7,0.8,3.1,1.4,3.9
			c-0.6-0.8-1.5-2-1.9-3.6C809.6,336,810.3,334.6,811.3,334.1z"/>
		<path class="st3" d="M911.4,379.9c-6.2,0-9.7-4-11.5-7.3c-2.2-3.5-3.7-8-4.1-12.3c-0.3-3.9,0.4-7.8,1.1-10.3
			c0.5-1.8,1.5-3.5,2.5-4.6l6-5.9l-1.2,1c-1.9,1.8-8.5,8-16,12.4c-1.1,0.6-2.2,1.2-3.3,1.8c-1.8,1-5.3,2.8-9.3,3.1h-1.1
			c-1.8,0-3.4-0.3-5-1c-3.5-1.4-5.7-5.5-6.5-11.7l-0.1-1.4c-0.2-2.7-0.1-5.7,0-6.9c4.2-0.6,7.4-1.7,10-3.6c0.4-0.3,0.8-0.7,1.3-1.1
			l1.2-1.3c0,0-0.4,2.7-0.4,2.8c-0.5,3.4-0.7,6-0.5,7.4c0,1.8,0.3,3.1,0.7,4c0.4,0.5,1,0.8,1.7,0.8c0.6,0,1.3-0.2,2-0.5
			c0.9-0.4,4.4-3.9,8.1-7.6c5.8-5.8,13-13,17.2-15.5c2.5-1.5,5.3-2.4,8.1-2.4c4.6,0,9,2.2,11.3,5.8l0.6,0.9
			c3.1,4.3,1.5,12.2-3.9,19.2c-1.9,2.5-3.5,4.3-4.8,5.6c-3.1,3.1-6.8,8-6.8,13.9c0,3.4,1,5.6,1.9,6.8c0.1,0.2,0.2,0.4,0.3,0.5
			c-0.2-1.3,0.2-2.3,0.9-3.2c0.9-1.1,2.4-1.7,3.9-1.7c2.5,0,4.5,1.9,4.8,4.3l-0.5,1.2h0.5l-0.7,0.9l0.5,0.1
			C919.8,375.4,918.1,379.9,911.4,379.9z"/>
		<path class="st3" d="M919.2,346c0,0,0-0.1,0.1-0.1c0.2-0.2,0.3-0.4,0.4-0.6c5-6.6,6.9-14.4,3.8-18.6c-0.2-0.3-0.3-0.6-0.5-0.9
			c-3.4-5.3-11.6-7.6-18.7-3.3c-7.1,4.4-23,22.2-25.4,23.2c-1.5,0.7-3.4,0.9-4.4-0.6c-0.5-1.1-0.7-2.6-0.8-4.1l0,0
			c-0.2-1.9,0.2-5.3,0.5-7.5c0,0,0.1-0.6,0.2-1.1c-0.4,0.5-0.8,0.9-1.3,1.2c-3.6,2.7-7.5,3.1-9.8,3.2c-0.1,1.1-0.2,4.1,0,6.8
			c0,0.4,0.1,0.9,0.1,1.4c0.5,4.5,2.1,9.6,6.2,11.3c2,0.8,4,1,5.8,0.9c4.2-0.3,7.7-2.3,9-3l0,0c1.1-0.5,2.2-1.1,3.3-1.8
			c6.7-3.9,12.9-9.4,15.9-12.4l0,0c0.5-0.4,1-0.8,1.3-1.1c0.6-0.5,1.3-1.2,2-1.8c1.6-1.4,3.3-2.8,4.2-3.1c0.5-0.2,1.1-0.1,1.5,0.2
			c1,0.5,1.7,1.9,1.2,3.8c-0.4,1.6-1.3,2.8-1.9,3.6c0.7-0.8,1.5-2.3,1.4-3.9c-0.1-1.5-0.5-2.4-1.4-2.6c-0.6-0.1-1.4,0.1-2.4,0.8
			c-0.3,0.3-1.4,1.3-2.8,2.7c-1.3,1.3-2.9,2.9-4.5,4.5c-0.6,0.6-1.3,1.3-2,2c-0.3,0.3-0.6,0.6-0.8,0.8c-0.8,0.9-1.8,2.4-2.4,4.3
			c-0.8,2.9-1.4,6.6-1.1,10.1c0.3,3.9,1.7,8.4,4,12.1c1.5,2.8,4.8,7.1,11,7.1c5.1,0,7.5-2.8,8.3-5.4c0-0.1,0-0.1,0-0.2
			s0.1-0.3,0.1-0.4s0-0.2,0-0.3c0-0.2,0-0.5,0-0.7s0-0.4,0-0.5c-0.3-2.2-2.1-3.8-4.3-3.8c-2.4,0-4.7,1.7-4.3,4.3
			c0.1,0.3,0.2,0.5,0.3,0.8c0.6,1.1,1.6,1.6,2.5,1.8c1.3,0.2,2.4-0.2,2.4-0.2s-1.4,1.1-3.2,0.5c-1-0.3-2.1-1.1-3.2-2.9
			c0,0,0,0,0-0.1c-1.1-1.5-2-3.9-2-7.1c0-6.2,3.8-11.1,6.9-14.3C916.2,349.5,917.8,347.8,919.2,346z"/>
	</g>
	<g>
		
			<radialGradient id="SVGID_1_" cx="1369.7463" cy="323.566" r="112.2819" gradientTransform="matrix(3.9145 0 0 3.9145 -4569.1948 -1099.7728)" gradientUnits="userSpaceOnUse">
			<stop  offset="0.1052" style="stop-color:#FFFFFF"/>
			<stop  offset="0.9099" style="stop-color:#A8A2A0"/>
		</radialGradient>
		<path class="st4" d="M850.2,269c0.3,2.3,0.7,4.7,1,7.1c0.7,5.1,1.4,10,1.9,13.2c0,0.4,0.1,0.8,0.1,1.1c0.1,0.7,0.2,1.3,0.2,1.7
			s0.1,0.8,0.1,1c0,0.1,0,0.1,0,0.1l0,0l0,0v0.1l0,0l0,0l0,0c0,0.1,0.1,0.3,0.1,0.4c0.1,0.2,0.2,0.4,0.3,0.6
			c0.1,0.1,0.1,0.1,0.2,0.1c0.1,0,0.1,0.1,0.2,0.1c1.2,1.1,4.1,1.8,7.4,1.9l0,0c0,0,0.1,0,0.2,0c0.1,0,0.1,0,0.2,0c0,0,0.1,0,0.2,0
			c0,0,0.1,0,0.2,0l0,0c3.4-0.1,6.2-0.8,7.4-1.9c0.1,0,0.1-0.1,0.2-0.1c0-0.1,0.1-0.1,0.2-0.1c0.2-0.2,0.3-0.4,0.3-0.6
			c0.1-0.1,0.1-0.2,0.1-0.4l0,0l0,0l0,0v-0.1l0,0l0,0v-0.1c0-0.2,0.1-0.6,0.1-1s0.2-1,0.2-1.7c0-0.3,0.1-0.7,0.2-1.1
			c0.4-3.3,1.1-8.1,1.8-13.2c0.3-2.4,0.7-4.8,1-7.1c1.1-7.2,10.8-37.5,14.5-49.1c7.6-23.4,15.8-45.5,15.8-61.2
			c0-33.3-17-46.8-26.5-55.3l-0.7-0.7c-7.4-6.5-12.2-13.1-13.9-15.6c-0.1-0.2-0.2-0.3-0.3-0.4l-0.8-1.3l-0.8,1.3
			c-0.1,0.1-0.2,0.3-0.3,0.4c-1.7,2.4-6.5,9-13.9,15.6l-0.7,0.7c-9.5,8.5-26.5,22-26.5,55.3c0,15.7,8.2,37.8,15.8,61.2
			C839.5,231.5,849.2,261.8,850.2,269z"/>
		
			<radialGradient id="SVGID_2_" cx="1369.7463" cy="323.5678" r="112.2777" gradientTransform="matrix(3.9145 0 0 3.9145 -4569.1948 -1099.7728)" gradientUnits="userSpaceOnUse">
			<stop  offset="0.1052" style="stop-color:#FFFFFF"/>
			<stop  offset="0.9099" style="stop-color:#A8A2A0"/>
		</radialGradient>
		<path class="st5" d="M877.8,296.7c-0.6-0.1-1.2-0.3-1.8-0.5c-1.3-0.5-2.5-1.1-3.2-1.7l-0.1-0.1c0,0,0,0,0-0.1
			c-0.1-0.1-0.2-0.1-0.2-0.2c-0.4-0.3-0.8-0.4-0.9,0.3c0,0.1,0,0.2,0,0.3c0,0,0,0,0,0.1c0,2-4.2,3.7-9.4,3.7s-9.4-1.7-9.4-3.7
			c0,0,0,0,0-0.1s0-0.2,0-0.3c-0.1-0.7-0.5-0.6-0.9-0.3c-0.1,0.1-0.2,0.2-0.2,0.2s0,0,0,0.1l-0.1,0.1c-0.8,0.6-1.9,1.3-3.2,1.7
			c-0.6,0.2-1.2,0.4-1.8,0.5c-3.6,0.8-6.8,0.1-7.3-1.5v-0.1c0-0.1,0-0.2,0-0.3l0,0c0,0,0,0-0.1,0.1c0,0-0.1,0.1-0.3,0.3
			c-0.1,0.2-0.3,0.4-0.4,0.7c-0.1,0.2-0.1,0.4-0.1,0.7c0,0.1,0,0.2,0.1,0.4c0.1,0.4,0.3,0.8,0.8,1.1c0.5,0.4,1.2,0.8,2.2,1.1
			c0.4,0.1,0.8,0.2,1.1,0.4c1.5,0.4,3.2,0.8,5.1,1.1c0.4,0.1,0.8,0.1,1.2,0.2c0.3,0,0.5,0.1,0.8,0.1c0.7,0.1,1.4,0.2,2.1,0.3
			c2.8,0.3,6,0.5,9.2,0.5c0.3,0,1.1,0,1.6,0c0.3,0,0.6,0,1,0c3.3,0,6.4-0.2,9.2-0.5c0.7-0.1,1.4-0.2,2.1-0.3c0.3,0,0.5-0.1,0.8-0.1
			c0.4-0.1,0.8-0.1,1.2-0.2c1.9-0.3,3.6-0.7,5.1-1.1c0.4-0.1,0.8-0.2,1.1-0.4c1-0.4,1.7-0.7,2.2-1.1s0.7-0.8,0.8-1.1
			c0-0.1,0.1-0.2,0.1-0.4c0-0.2,0-0.5-0.1-0.7c-0.1-0.3-0.2-0.5-0.4-0.7c-0.1-0.2-0.2-0.3-0.3-0.3c0,0,0,0-0.1-0.1l0,0
			c0,0.1,0,0.2,0,0.3c0,0,0,0.1-0.1,0.1C884.6,296.8,881.5,297.5,877.8,296.7z"/>
		
			<radialGradient id="SVGID_3_" cx="1369.7461" cy="323.5659" r="112.2824" gradientTransform="matrix(3.9145 0 0 3.9145 -4569.1948 -1099.7728)" gradientUnits="userSpaceOnUse">
			<stop  offset="0.1052" style="stop-color:#FFFFFF"/>
			<stop  offset="0.9099" style="stop-color:#A8A2A0"/>
		</radialGradient>
		<path class="st6" d="M952.8,198.7c-2.4,0-4.5,0.2-6.3,0.5c-11,1.1-28.8,6.2-47.5,30.1c-3.6,4.6-6.7,9.5-9.3,14.3
			c-1.8,3.5-3.4,7.1-4.9,10.5v0.1v-0.1c-0.8,1.8-1.5,3.5-2.1,5.2c-0.4,1.2-0.9,2.5-1.3,3.7c-2.8,9.2-5.3,18.6-7,25.3
			c-0.2,0.9-0.5,1.8-0.6,2.3c-0.1,0.3-0.2,0.6-0.2,0.6c0,0.1,0,0.1,0,0.2c0,0.4,0.3,0.8,0.7,1.2c0.8,0.7,2.3,1.4,4.1,1.8
			c1,0.2,2,0.3,2.8,0.3c1.2,0,2.2-0.3,2.6-0.7l0,0l0,0l0.1-0.1l0,0c0.1-0.1,0.2-0.4,0.3-0.6c0.6-1.5,1.9-4.6,2.7-6.3
			c2.7-5.7,6.6-12.3,13.4-18.2c7.9-6.9,12.8-9.4,15-10.3c0.7-0.3,1.4-0.6,2.1-0.9c3-1.1,6.3-1.1,8.9-0.1c0.8,0.3,1.6,0.7,2.5,1.4
			c9,6.9,2.7,19.5,2.7,19.5s-0.1,5.3,9,10c0.6,0.3,1.2,0.6,1.9,0.9c0.6,0.3,1.3,0.6,2,0.8c0.4,0.1,0.8,0.3,1.2,0.4
			c1.1,0.3,2.4,0.5,3.7,0.6c1,0.1,2.1,0.2,3.3,0.2c2.7,0,5.3-0.3,7.9-0.7c1-0.2,2-0.4,2.9-0.6c3.7-0.9,7.2-2.3,10.4-4
			c14.3-7.8,24.1-23.2,24.1-40.9C998.1,219.4,977.8,198.7,952.8,198.7z"/>
		
			<radialGradient id="SVGID_4_" cx="1369.7463" cy="323.5659" r="112.2822" gradientTransform="matrix(3.9145 0 0 3.9145 -4569.1948 -1099.7728)" gradientUnits="userSpaceOnUse">
			<stop  offset="0.1052" style="stop-color:#FFFFFF"/>
			<stop  offset="0.9099" style="stop-color:#A8A2A0"/>
		</radialGradient>
		<path class="st7" d="M845.8,262.6c0,0-9-31.7-23.3-52.9c-1.2-1.8-13.8-19.8-21.4-30.5c-0.7,1-1.7,1.8-3,2.3
			c5.2,7.1,12.9,17.5,19.7,26.5C833.6,228.4,845.8,262.6,845.8,262.6z"/>
		
			<radialGradient id="SVGID_5_" cx="1369.7466" cy="323.5661" r="112.284" gradientTransform="matrix(3.9145 0 0 3.9145 -4569.1948 -1099.7728)" gradientUnits="userSpaceOnUse">
			<stop  offset="0.1052" style="stop-color:#FFFFFF"/>
			<stop  offset="0.9099" style="stop-color:#A8A2A0"/>
		</radialGradient>
		<path class="st8" d="M784.8,167.8l0.3-0.1c0.2,0,0.5-0.1,0.7-0.1c-0.2-0.5-0.4-1.1-0.5-1.6c-0.1-0.4-0.2-0.8-0.2-1.2
			c0-0.1,0-0.3,0-0.4c-4.2-0.8-9.3-0.1-9.3-0.1s4.2,2.2,7.4,3.8C783.6,168.1,784.2,167.9,784.8,167.8z"/>
		
			<radialGradient id="SVGID_6_" cx="1369.7463" cy="323.566" r="112.2811" gradientTransform="matrix(3.9145 0 0 3.9145 -4569.1948 -1099.7728)" gradientUnits="userSpaceOnUse">
			<stop  offset="0.1052" style="stop-color:#FFFFFF"/>
			<stop  offset="0.9099" style="stop-color:#A8A2A0"/>
		</radialGradient>
		<path class="st9" d="M787,167.6c0.2,0,0.4,0,0.5-0.1c0.5-0.1,0.9-0.1,1.4-0.1c0-0.1,0-0.3,0.1-0.4l0.1-0.5c0-0.3,0.1-0.7,0.2-1
			c0.1-0.5,0.2-1.1,0.3-1.6l0.1-0.5c0.2-0.7,0.4-1.3,0.6-1.9c-0.7-3.5-1.9-7.9-1.9-7.9s-0.2,0.4-0.4,1.1c-0.7,2-2.1,6.6-1.8,10.1
			c0,0.4,0.1,0.7,0.2,1.1C786.6,166.4,786.8,167,787,167.6z"/>
		
			<radialGradient id="SVGID_7_" cx="1369.7463" cy="323.566" r="112.2849" gradientTransform="matrix(3.9145 0 0 3.9145 -4569.1948 -1099.7728)" gradientUnits="userSpaceOnUse">
			<stop  offset="0.1052" style="stop-color:#FFFFFF"/>
			<stop  offset="0.9099" style="stop-color:#A8A2A0"/>
		</radialGradient>
		<path class="st10" d="M790.2,167.4h0.2c0.5,0,0.9,0,1.3,0c0.4,0,0.6,0,0.9,0.1c4.6,0.4,6.9,2.1,8,3.5c0.1,0.1,0.2,0.3,0.3,0.4
			c0-0.2-0.1-0.4-0.1-0.5c-1-3.9-3.2-8.2-1.2-10.8c0.6-0.8,1.7-1.5,3.3-1.9c0,0-0.7-0.5-1.8-1c-2.8-1.2-8-2.1-10.2,6.5
			c0,0.2-0.1,0.3-0.1,0.5c-0.1,0.5-0.2,1.1-0.3,1.5s-0.1,0.8-0.2,1.2C790.2,167.1,790.2,167.2,790.2,167.4z"/>
		
			<radialGradient id="SVGID_8_" cx="1369.7463" cy="323.566" r="112.2807" gradientTransform="matrix(3.9145 0 0 3.9145 -4569.1948 -1099.7728)" gradientUnits="userSpaceOnUse">
			<stop  offset="0.1052" style="stop-color:#FFFFFF"/>
			<stop  offset="0.9099" style="stop-color:#A8A2A0"/>
		</radialGradient>
		<path class="st11" d="M800.5,176.8c0.2-0.4,0.3-0.8,0.3-1.2c0-0.1,0-0.2,0-0.3c0.3-2.9-2-6-8.3-6.6c-0.2,0-0.5,0-0.7-0.1h-0.1
			c-0.5,0-1,0-1.6,0c-0.3,0-0.6,0-1,0c-0.5,0-0.9,0.1-1.5,0.1c-0.3,0-0.5,0.1-0.8,0.1c-0.5,0.1-1.1,0.1-1.6,0.2
			c-0.1,0-0.2,0-0.2,0.1c-9.7,1.6-7.8,8.2-6.8,10.5c0.2,0.5,0.4,0.8,0.4,0.8c0.6-1.6,1.3-2.6,2.2-3.1c2.8-1.8,6.8,0.8,10.7,2.2
			c2.4,0.9,4.6,0.9,6.2,0.2c1.3-0.5,2.2-1.4,2.7-2.6C800.4,177,800.4,176.9,800.5,176.8z"/>
		
			<radialGradient id="SVGID_9_" cx="1369.7463" cy="323.5648" r="112.2843" gradientTransform="matrix(3.9145 0 0 3.9145 -4569.1948 -1099.7728)" gradientUnits="userSpaceOnUse">
			<stop  offset="0.1052" style="stop-color:#FFFFFF"/>
			<stop  offset="0.9099" style="stop-color:#A8A2A0"/>
		</radialGradient>
		<path class="st12" d="M881.3,311.8L881.3,311.8L881.3,311.8L881.3,311.8c0.8-0.5,1.5-1,2.1-1.6c5.9-5.6,4.6-12.2,3.8-13.6
			c0,0,0,0,0,0.1c0,0.2,0,0.4-0.1,0.6c-0.2,0.6-0.6,1.3-1.2,1.8c-0.6,0.5-1.5,1-2.6,1.4c-0.3,0.1-0.7,0.2-1,0.3l-0.2,0.1
			c-1.6,0.4-3.3,0.8-5.3,1.1c-0.4,0.1-0.8,0.1-1.2,0.2l-0.8,0.1c-0.7,0.1-1.4,0.2-2.2,0.3c-3,0.3-6.2,0.5-9.3,0.5c-0.3,0-0.7,0-1,0
			c-0.5,0-1.3,0-1.6,0c-3.2,0-6.3-0.2-9.3-0.5c-0.7-0.1-1.5-0.2-2.2-0.3l-0.8-0.1c-0.4-0.1-0.8-0.1-1.2-0.2
			c-1.9-0.3-3.7-0.7-5.3-1.1l-0.3-0.1c-0.3-0.1-0.6-0.2-0.9-0.3c-1.1-0.4-1.9-0.8-2.5-1.3s-1-1.1-1.2-1.8c0-0.2-0.1-0.3-0.1-0.5
			c-0.8,1.8-1.7,8,4,13.5c0.7,0.6,1.4,1.2,2.2,1.7l0,0c0.2,0.2,2.6,1.6,5.3,2.4c3.7,1,9.6,1.8,13.5,1.8s9.8-0.8,13.5-1.8
			c0.7-0.2,1.4-0.4,2-0.7c0.9-0.4,1.8-0.8,2.7-1.2c0.3-0.2,0.6-0.3,0.8-0.4C881.2,311.9,881.2,311.9,881.3,311.8z"/>
		
			<radialGradient id="SVGID_10_" cx="1369.746" cy="323.5675" r="112.2787" gradientTransform="matrix(3.9145 0 0 3.9145 -4569.1948 -1099.7728)" gradientUnits="userSpaceOnUse">
			<stop  offset="0.1052" style="stop-color:#FFFFFF"/>
			<stop  offset="0.9099" style="stop-color:#A8A2A0"/>
		</radialGradient>
		<path class="st13" d="M862.2,327h-0.3c-5.5,0-10-1-13.8-3.2c-0.1,0-0.1-0.1-0.2-0.1c0.1,1.3,0.7,6.5,4,8.9c3.7,2.8,7.9,3,10.1,3
			l0,0l0,0l0,0l0,0c2.2,0,6.4-0.2,10.1-3c3.3-2.5,3.9-7.7,4-8.9c-0.1,0-0.1,0.1-0.2,0.1c-5.5,3.1-11.5,3.2-13.8,3.2H862.2z"/>
		
			<radialGradient id="SVGID_11_" cx="1369.7458" cy="323.5668" r="112.2804" gradientTransform="matrix(3.9145 0 0 3.9145 -4569.1948 -1099.7728)" gradientUnits="userSpaceOnUse">
			<stop  offset="0.1052" style="stop-color:#FFFFFF"/>
			<stop  offset="0.9099" style="stop-color:#A8A2A0"/>
		</radialGradient>
		<path class="st14" d="M848.6,376.2c0.8-0.4,1.5-0.9,2.3-1.4c1.3-0.9,2.7-1.8,3.9-2.8c0.5-0.5,1.1-0.9,1.6-1.4
			c0.6-0.6,1.1-1.1,1.7-1.7l0,0c0.7-0.8,1.3-1.5,1.9-2.2c0.3-0.4,0.5-0.7,0.8-1c0.1-0.2,0.3-0.4,0.4-0.6c0.1-0.2,0.2-0.3,0.3-0.5
			c0.1-0.1,0.2-0.3,0.3-0.5c0.2-0.4,0.4-0.7,0.6-1.1c0.1-0.2,0.2-0.3,0.2-0.5c0.4-0.9,0.8-1.8,1-2.6c0.3-1,0.5-1.9,0.5-2.7
			c0-0.4,0.1-0.9,0.1-1.3c0-0.1,0-0.3,0-0.4c0,0,0,0,0-0.1c0.1-1.6,0-3.1-0.5-4.2c-0.1-0.2-0.1-0.4-0.2-0.5
			c-0.5-1.5-0.9-3.1-1.1-4.7c-0.1-0.5-0.2-1.1-0.2-1.6c0,0.3,0,0.6-0.1,0.9c-0.8,6.5-3.2,10.7-6.9,12.3c-1.6,0.7-3.4,1-5.3,1
			c-0.4,0-0.8,0-1.1,0s-0.6-0.1-0.9-0.1c-2,2-5,5.1-6.3,7.5c-0.6,1.1-1.2,2.3-1.7,3.5c-1.6,3.9-2.3,7.8-2.7,10
			c-0.2,1-0.2,1.6-0.2,1.6s0.8-0.2,2-0.5l0,0c1.3-0.4,3.3-1,5.4-2C845.7,377.7,847.2,377,848.6,376.2z"/>
		
			<radialGradient id="SVGID_12_" cx="1369.7458" cy="323.5647" r="112.2842" gradientTransform="matrix(3.9145 0 0 3.9145 -4569.1948 -1099.7728)" gradientUnits="userSpaceOnUse">
			<stop  offset="0.1052" style="stop-color:#FFFFFF"/>
			<stop  offset="0.9099" style="stop-color:#A8A2A0"/>
		</radialGradient>
		<path class="st15" d="M875.8,379.8c-0.3-0.5-0.5-1-0.8-1.4c-0.5-0.3-1.1-0.5-1.6-0.8c-1.5-0.8-2.9-1.6-4.1-2.5
			c-0.9-0.7-1.8-1.4-2.7-2.3c-0.1,0-0.1,0-0.2-0.1c-0.3,1.2-0.9,3.1-1.8,5.2c-0.3,0.6-0.5,1.2-0.9,1.8c-0.2,0.3-0.3,0.6-0.5,0.9
			c-0.1,0.2-0.2,0.3-0.3,0.5c-0.3,0.4-0.5,0.9-0.8,1.3c-0.1,0.1-0.2,0.2-0.3,0.4c0,0,0,0,0.1,0c1.2,1.6,2.5,3,3.8,3.9
			c0.6,0.5,1.2,0.9,1.8,1.3c0.4,0.2,0.7,0.5,1.1,0.7c0.6,0.4,1.2,0.7,1.9,1.1s1.5,0.7,2.1,1.1c2.2,1,4.2,1.7,5.4,2.1
			c0.8,0.3,1.3,0.4,1.3,0.4s-0.1-3-1-6.8C877.6,384.4,876.8,382,875.8,379.8z"/>
		
			<radialGradient id="SVGID_13_" cx="1369.746" cy="323.5638" r="112.2857" gradientTransform="matrix(3.9145 0 0 3.9145 -4569.1948 -1099.7728)" gradientUnits="userSpaceOnUse">
			<stop  offset="0.1052" style="stop-color:#FFFFFF"/>
			<stop  offset="0.9099" style="stop-color:#A8A2A0"/>
		</radialGradient>
		<path class="st16" d="M852.9,388.9c0,0,0.1,0,0.1-0.1c0.4-0.2,0.8-0.5,1.2-0.7c0.5-0.3,1-0.6,1.5-1c1.3-0.9,2.5-2,3.5-3
			c0.5-0.5,0.9-1.1,1.3-1.6c0.2-0.3,0.4-0.6,0.6-0.9c0.3-0.4,0.5-0.8,0.8-1.2c0.1-0.2,0.2-0.3,0.3-0.5c0.2-0.3,0.3-0.6,0.5-0.9
			c0.3-0.6,0.6-1.1,0.8-1.7c1.2-2.6,1.7-4.8,2-5.8c-1-1.1-2-2.2-2.9-3.5c-0.4-0.5-0.7-1-1-1.5c-0.2,0.2-0.3,0.5-0.5,0.7
			c-0.6,0.7-1.2,1.5-1.9,2.3c-0.6,0.6-1.1,1.2-1.7,1.8c-0.5,0.5-1.1,1-1.7,1.5c-1.2,1-2.6,2-4,3c-0.8,0.5-1.6,1-2.3,1.4
			c-0.8,0.5-1.6,0.9-2.4,1.3c-0.4,0.8-0.8,1.8-1.2,2.9c-2.4,5.8-2.7,11.9-2.7,11.9s2.9-0.9,6.5-2.6
			C850.5,390.2,851.7,389.6,852.9,388.9z"/>
		
			<radialGradient id="SVGID_14_" cx="1369.7463" cy="323.5656" r="112.2824" gradientTransform="matrix(3.9145 0 0 3.9145 -4569.1948 -1099.7728)" gradientUnits="userSpaceOnUse">
			<stop  offset="0.1052" style="stop-color:#FFFFFF"/>
			<stop  offset="0.9099" style="stop-color:#A8A2A0"/>
		</radialGradient>
		<path class="st17" d="M882.2,369.2c-0.5-1.2-1-2.4-1.7-3.5c-1.5-2.7-3.7-5-5.6-6.8c-0.2-0.2-0.3-0.3-0.5-0.5c-1.9,0-3.6-0.4-5.3-1
			c-1.5-0.6-2.8-1.7-3.8-3.2l0,0c0,0.3,0,0.7,0,1v0.4c0,0.5,0,0.9-0.1,1.4c-0.1,1-0.3,2-0.6,3c-0.3,0.9-0.6,1.9-1.1,2.8l-0.2,0.5
			c-0.2,0.4-0.4,0.8-0.6,1.2l0,0c-0.2,0.3-0.3,0.6-0.5,0.9c0,0,0,0.1-0.1,0.1c0.4,0.5,0.8,1.1,1.2,1.7c0.8,1.2,1.9,2.4,3,3.7
			c0.2,0.2,0.5,0.5,0.7,0.7c0.9,0.8,1.8,1.7,2.8,2.4c1.3,0.9,2.6,1.7,4,2.4c0.9,0.5,1.9,0.9,2.8,1.4c2.7,1.2,5.2,2,6.8,2.5
			c1,0.3,1.7,0.5,1.7,0.5s-0.3-3.7-1.7-8.1C883.1,371.5,882.7,370.4,882.2,369.2z"/>
		
			<radialGradient id="SVGID_15_" cx="1369.7458" cy="323.5689" r="112.276" gradientTransform="matrix(3.9145 0 0 3.9145 -4569.1948 -1099.7728)" gradientUnits="userSpaceOnUse">
			<stop  offset="0.1052" style="stop-color:#FFFFFF"/>
			<stop  offset="0.9099" style="stop-color:#A8A2A0"/>
		</radialGradient>
		<path class="st18" d="M880.8,314c0-0.2,0-0.4,0-0.5c-0.9,0.5-1.8,0.9-2.8,1.3c-0.8,0.3-1.5,0.5-2.2,0.7c-3.8,1-9.8,1.9-13.8,1.9
			l0,0c-4,0-10-0.9-13.8-1.9c-2-0.6-3.9-1.5-4.9-2.1c0,0.2,0,0.4,0.1,0.6c0,0,0.3,5.3,4.5,8.3l0,0c0.3,0.2,0.5,0.4,0.8,0.5
			c4.9,2.8,10.4,3,13.3,3l0,0c0,0,0,0,0.1,0s0,0,0.1,0l0,0c2.9,0,8.4-0.2,13.3-3C880.5,319.9,880.8,314,880.8,314z"/>
		
			<radialGradient id="SVGID_16_" cx="1369.7456" cy="323.5668" r="112.2818" gradientTransform="matrix(3.9145 0 0 3.9145 -4569.1948 -1099.7728)" gradientUnits="userSpaceOnUse">
			<stop  offset="0.1052" style="stop-color:#FFFFFF"/>
			<stop  offset="0.9099" style="stop-color:#A8A2A0"/>
		</radialGradient>
		<path class="st19" d="M930.8,295c-0.8,0-1.6,0.1-2.2,0.4c-4.9,2.4,0,6.8,0,6.8s-7-3.9-0.1-8.3c0-0.1,0-0.1,0-0.2
			c0.2-3.7,2.9-6.7,6.4-7.5h0.3c-2.9-2.4-4.1-4.8-4.6-6.3l-0.6,0.3c-4.2,2.5-7.2,6.9-7.5,12.2c-0.2,3.7,0.5,7.2,2.5,9.9
			c0.9,1.2,2,2.3,3.6,3c0.5,0.2,1,0.3,1.6,0.4c2.4,0.1,4.5-1.4,5.3-3.5c0.2-0.5,0.3-1,0.3-1.5C936.1,297.8,933.8,295.2,930.8,295z"
			/>
		
			<radialGradient id="SVGID_17_" cx="1369.7465" cy="323.5659" r="112.2821" gradientTransform="matrix(3.9145 0 0 3.9145 -4569.1948 -1099.7728)" gradientUnits="userSpaceOnUse">
			<stop  offset="0.1052" style="stop-color:#FFFFFF"/>
			<stop  offset="0.9099" style="stop-color:#A8A2A0"/>
		</radialGradient>
		<path class="st20" d="M792.7,278.3c0,0-6.4-12.6,2.7-19.5c0.9-0.7,1.7-1.1,2.5-1.4c2.6-1,5.9-0.9,8.9,0.1c0.8,0.3,1.5,0.6,2.1,0.9
			c2.2,0.9,7.1,3.4,15,10.3c6.8,5.9,10.7,12.4,13.4,18.2c0.8,1.7,2.1,4.8,2.7,6.3c0.1,0.3,0.2,0.5,0.3,0.6l0,0
			c0,0.1,0.1,0.1,0.1,0.1l0,0c0.5,0.5,1.4,0.7,2.6,0.7c0.8,0,1.8-0.1,2.8-0.3c1.8-0.4,3.3-1,4.1-1.8c0.5-0.4,0.7-0.8,0.7-1.2
			c0-0.1,0-0.1,0-0.2s-0.1-0.3-0.2-0.6c-0.2-0.6-0.4-1.4-0.6-2.3c-1.7-6.7-4.2-16.1-7-25.3c-0.4-1.2-0.8-2.4-1.2-3.7
			c-0.6-1.7-1.3-3.4-2.1-5.2v0.1V254c-1.5-3.4-3.1-7-4.9-10.5c-2.6-4.8-5.6-9.7-9.2-14.3c-18.7-23.9-36.4-29-47.5-30.1
			c-1.8-0.4-3.9-0.5-6.3-0.5c-25,0-45.4,20.7-45.4,46.3c0,17.7,9.8,33.1,24.1,40.9c3.3,1.8,6.8,3.1,10.4,4c1,0.2,1.9,0.4,2.9,0.6
			c2.6,0.5,5.2,0.7,7.9,0.7c1.2,0,2.3-0.1,3.3-0.2c1.4-0.1,2.6-0.3,3.7-0.6c0.4-0.1,0.8-0.3,1.2-0.4c0.7-0.3,1.4-0.5,2-0.8
			c0.7-0.3,1.3-0.6,1.9-0.9C792.8,283.6,792.7,278.3,792.7,278.3z"/>
		
			<radialGradient id="SVGID_18_" cx="1369.7463" cy="323.5668" r="112.2789" gradientTransform="matrix(3.9145 0 0 3.9145 -4569.1948 -1099.7728)" gradientUnits="userSpaceOnUse">
			<stop  offset="0.1052" style="stop-color:#FFFFFF"/>
			<stop  offset="0.9099" style="stop-color:#A8A2A0"/>
		</radialGradient>
		<path class="st21" d="M794.3,280.2l-0.6-0.3c-0.4,1.5-1.7,3.9-4.6,6.3h0.3c3.5,0.8,6.2,3.8,6.4,7.5c0,0.1,0,0.1,0,0.2
			c6.9,4.4-0.1,8.3-0.1,8.3s4.9-4.4,0-6.8c-0.7-0.3-1.4-0.4-2.2-0.4c-3,0.2-5.2,2.7-5,5.7c0,0.5,0.2,1.1,0.3,1.5
			c0.8,2.1,2.9,3.6,5.3,3.5c0.6,0,1.1-0.2,1.6-0.4c1.5-0.8,2.7-1.9,3.6-3c2-2.7,2.7-6.3,2.5-9.9
			C801.4,287.2,798.5,282.7,794.3,280.2z"/>
		
			<radialGradient id="SVGID_19_" cx="1369.7468" cy="323.5699" r="112.2749" gradientTransform="matrix(3.9145 0 0 3.9145 -4569.1948 -1099.7728)" gradientUnits="userSpaceOnUse">
			<stop  offset="0.1052" style="stop-color:#FFFFFF"/>
			<stop  offset="0.9099" style="stop-color:#A8A2A0"/>
		</radialGradient>
		<path class="st22" d="M861.4,399.1L861.4,399.1L861.4,399.1c-1.8,1.4-3.8,2.8-6.2,4c-0.2,0.1-0.4,0.2-0.5,0.3c0,0.2,0,0.4,0.1,0.5
			c0.5,3.5,3,5.2,4.5,8.4c1.7,3.6,2.8,8.1,2.8,8.1v0.5c0,0,0.1-0.4,0.2-1c0.3-1.3,1.3-4.6,2.6-7.5c1.4-3.1,3.8-4.8,4.4-8
			c0-0.1,0-0.2,0.1-0.3c-0.2-0.1-0.3-0.1-0.4-0.2C865.8,402.4,863.3,400.8,861.4,399.1z"/>
		
			<radialGradient id="SVGID_20_" cx="1369.7483" cy="323.5655" r="112.2812" gradientTransform="matrix(3.9145 0 0 3.9145 -4569.1948 -1099.7728)" gradientUnits="userSpaceOnUse">
			<stop  offset="0.1052" style="stop-color:#FFFFFF"/>
			<stop  offset="0.9099" style="stop-color:#A8A2A0"/>
		</radialGradient>
		<path class="st23" d="M871.5,392.3c-0.1-0.3-0.2-0.6-0.3-0.8c-0.5-0.2-0.9-0.5-1.4-0.7c-0.6-0.3-1.2-0.6-1.7-1L868,390
			c-0.8,1.6-2.4,4.6-4.8,7.2c-0.3,0.4-0.7,0.7-1,1c2.3,1.9,4.9,3.4,7.1,4.5c1.7,0.8,3.1,1.4,4,1.7c0.5,0.2,0.7,0.3,0.7,0.3
			s0-2-0.4-4.7C873.3,397.6,872.7,394.9,871.5,392.3z"/>
		
			<radialGradient id="SVGID_21_" cx="1369.746" cy="323.5667" r="112.2807" gradientTransform="matrix(3.9145 0 0 3.9145 -4569.1948 -1099.7728)" gradientUnits="userSpaceOnUse">
			<stop  offset="0.1052" style="stop-color:#FFFFFF"/>
			<stop  offset="0.9099" style="stop-color:#A8A2A0"/>
		</radialGradient>
		<path class="st24" d="M860.5,398c0.3-0.2,0.5-0.5,0.7-0.7c0.4-0.3,0.7-0.7,1-1c2.4-2.6,3.9-5.5,4.7-7.1v-0.1
			c-0.1,0-0.2-0.1-0.2-0.1c-0.7-0.4-1.3-0.9-1.9-1.4c-1.2-0.9-2.4-2.2-3.8-3.9c-0.3,0.4-0.6,0.8-1,1.2c-0.9,1.1-2.2,2.1-3.7,3.2
			c-0.5,0.4-1,0.7-1.5,1c-0.4,0.3-0.8,0.5-1.3,0.8l-0.1,0.1c-0.6,0.3-1.2,0.7-1.8,1c-0.3,0.7-0.9,2.3-1.3,3.3
			c-1.7,5.2-1.7,10.4-1.7,10.4s2.7-0.9,5.8-2.6c2-1,4.1-2.3,6-3.9C860.5,398.1,860.5,398,860.5,398z"/>
		
			<radialGradient id="SVGID_22_" cx="1369.7458" cy="323.5659" r="112.2829" gradientTransform="matrix(3.9145 0 0 3.9145 -4569.1948 -1099.7728)" gradientUnits="userSpaceOnUse">
			<stop  offset="0.1052" style="stop-color:#FFFFFF"/>
			<stop  offset="0.9099" style="stop-color:#A8A2A0"/>
		</radialGradient>
		<path class="st25" d="M901.8,209.6c-14.3,21.2-23.3,52.9-23.3,52.9s12.2-34.1,27.9-54.7c6.9-9,14.5-19.4,19.7-26.5
			c-1.3-0.5-2.3-1.2-3-2.3C915.6,189.9,903,207.8,901.8,209.6z"/>
		
			<radialGradient id="SVGID_23_" cx="1369.7428" cy="323.5661" r="112.2922" gradientTransform="matrix(3.9145 0 0 3.9145 -4569.1948 -1099.7728)" gradientUnits="userSpaceOnUse">
			<stop  offset="0.1052" style="stop-color:#FFFFFF"/>
			<stop  offset="0.9099" style="stop-color:#A8A2A0"/>
		</radialGradient>
		<path class="st26" d="M939.5,167.8c0.6,0.1,1.2,0.2,1.7,0.4c3.3-1.6,7.4-3.8,7.4-3.8s-5.1-0.7-9.3,0.1c0,0.1,0,0.3,0,0.4
			c0,0.4-0.1,0.8-0.2,1.2c-0.1,0.6-0.3,1.1-0.5,1.6c0.2,0,0.5,0.1,0.7,0.1H939.5z"/>
		
			<radialGradient id="SVGID_24_" cx="1369.7445" cy="323.566" r="112.288" gradientTransform="matrix(3.9145 0 0 3.9145 -4569.1948 -1099.7728)" gradientUnits="userSpaceOnUse">
			<stop  offset="0.1052" style="stop-color:#FFFFFF"/>
			<stop  offset="0.9099" style="stop-color:#A8A2A0"/>
		</radialGradient>
		<path class="st27" d="M934.7,163.9c0.1,0.5,0.3,1.1,0.3,1.6c0.1,0.4,0.1,0.7,0.2,1l0.1,0.5c0,0.1,0,0.3,0.1,0.4
			c0.5,0,0.9,0,1.4,0.1c0.1,0,0.3,0,0.5,0.1c0.2-0.5,0.5-1.1,0.6-1.8c0.1-0.3,0.1-0.7,0.2-1.1c0.4-3.5-1-8.1-1.8-10.1
			c-0.2-0.7-0.4-1.1-0.4-1.1s-1.1,4.4-1.8,7.9c0.2,0.6,0.4,1.2,0.6,1.9L934.7,163.9z"/>
		
			<radialGradient id="SVGID_25_" cx="1369.7489" cy="323.566" r="112.2741" gradientTransform="matrix(3.9145 0 0 3.9145 -4569.1948 -1099.7728)" gradientUnits="userSpaceOnUse">
			<stop  offset="0.1052" style="stop-color:#FFFFFF"/>
			<stop  offset="0.9099" style="stop-color:#A8A2A0"/>
		</radialGradient>
		<path class="st28" d="M923.6,170.8c0,0.2-0.1,0.4-0.1,0.5c0.1-0.1,0.2-0.3,0.3-0.4c1.1-1.4,3.4-3,8-3.5c0.3,0,0.5,0,0.9-0.1
			c0.4,0,0.9,0,1.3,0h0.2c0-0.1,0-0.3-0.1-0.4c-0.1-0.4-0.1-0.8-0.2-1.2c-0.1-0.5-0.2-1-0.3-1.5c0-0.2-0.1-0.3-0.1-0.5
			c-2.1-8.6-7.4-7.7-10.2-6.5c-1.1,0.5-1.8,1-1.8,1c1.7,0.4,2.7,1.1,3.3,1.9C926.8,162.6,924.6,166.9,923.6,170.8z"/>
		
			<radialGradient id="SVGID_26_" cx="1369.7458" cy="323.566" r="112.283" gradientTransform="matrix(3.9145 0 0 3.9145 -4569.1948 -1099.7728)" gradientUnits="userSpaceOnUse">
			<stop  offset="0.1052" style="stop-color:#FFFFFF"/>
			<stop  offset="0.9099" style="stop-color:#A8A2A0"/>
		</radialGradient>
		<path class="st29" d="M932.9,179.5c3.8-1.4,7.9-4,10.7-2.2c0.9,0.6,1.6,1.5,2.2,3.1c0,0,0.2-0.3,0.4-0.8c1-2.3,3-8.9-6.8-10.5
			c-0.1,0-0.2,0-0.3-0.1c-0.6-0.1-1.1-0.1-1.6-0.2c-0.3,0-0.5-0.1-0.8-0.1c-0.5-0.1-1-0.1-1.4-0.1c-0.3,0-0.6,0-1,0
			c-0.6,0-1.1,0-1.6,0h-0.1c-0.3,0-0.5,0-0.7,0.1c-6.3,0.6-8.6,3.8-8.3,6.6c0,0.1,0,0.2,0,0.3c0.1,0.4,0.2,0.8,0.3,1.2
			c0,0.1,0.1,0.2,0.1,0.3c0.5,1.2,1.5,2.1,2.8,2.6C928.3,180.3,930.5,180.3,932.9,179.5z"/>
		
			<radialGradient id="SVGID_27_" cx="1369.7465" cy="323.5656" r="112.2824" gradientTransform="matrix(3.9145 0 0 3.9145 -4569.1948 -1099.7728)" gradientUnits="userSpaceOnUse">
			<stop  offset="0.1052" style="stop-color:#FFFFFF"/>
			<stop  offset="0.9099" style="stop-color:#A8A2A0"/>
		</radialGradient>
		<path class="st30" d="M811.3,334.1c0.5-0.2,1-0.3,1.5-0.2c1,0.3,2.6,1.7,4.2,3.1c0.7,0.6,1.4,1.3,2,1.8c0.4,0.3,0.8,0.7,1.3,1.1
			l0,0c3,3,9.2,8.4,16,12.4c1.1,0.6,2.2,1.2,3.3,1.8l0,0c1.3,0.7,4.9,2.7,9,3c1.9,0.1,3.9-0.1,5.8-0.9c4.1-1.7,5.6-6.8,6.2-11.3
			c0-0.5,0.1-0.9,0.1-1.4c0.2-2.7,0.1-5.7,0-6.8c-2.2-0.1-6.2-0.6-9.8-3.2c-0.5-0.4-0.9-0.8-1.3-1.2c0.1,0.5,0.2,1.1,0.1,1.1
			c0.2,1.4,0.5,3.4,0.5,5.1c0,0.6,0,1.4,0,2.3l0,0c0,1.3-0.2,2.5-0.5,3.5c-0.9,2.2-3,2-4.8,1.2c-2.4-1-18.3-18.8-25.4-23.2
			s-15.2-2-18.7,3.3c-0.3,0.5-0.5,0.9-0.8,1.3c-2.7,4.4-0.8,11.9,4.1,18.2c0.1,0.2,0.3,0.4,0.4,0.6c0,0,0,0.1,0.1,0.1
			c1.4,1.8,2.9,3.5,4.3,4.9c3.1,3.1,6.9,8.1,6.9,14.3c0,3.2-0.9,5.5-2,7.1c0,0,0,0,0,0.1c-1.1,1.8-2.2,2.6-3.2,2.9
			c-1.8,0.6-3.2-0.5-3.2-0.5s1.2,0.4,2.4,0.2c0.9-0.2,1.8-0.6,2.5-1.8c0.1-0.3,0.2-0.5,0.3-0.8c0.4-2.6-1.9-4.3-4.3-4.3
			c-2.2,0-4,1.7-4.3,3.8c0,0.1,0,0.3,0,0.5s0,0.5,0,0.7c0,0.1,0,0.2,0,0.3c0,0.1,0,0.3,0.1,0.4c0,0.1,0,0.2,0,0.2
			c0.7,2.6,3.1,5.4,8.3,5.4c6.2,0,9.5-4.2,11-7.1c2.3-3.7,3.7-8.2,4.1-12.1c0.3-3.6-0.3-7.3-1.1-10.2c-0.6-1.9-1.5-3.5-2.4-4.3
			c-0.2-0.2-0.5-0.5-0.8-0.8c-0.7-0.6-1.4-1.4-2-2c-1.6-1.6-3.2-3.2-4.5-4.5c-1.4-1.4-2.5-2.4-2.8-2.7c-1-0.7-1.8-1-2.4-0.8
			c-0.8,0.2-1.3,1.1-1.4,2.6c-0.1,1.7,0.8,3.1,1.4,3.9c-0.6-0.8-1.5-2-1.9-3.6C809.6,336,810.3,334.7,811.3,334.1z"/>
		
			<radialGradient id="SVGID_28_" cx="1369.7463" cy="323.5656" r="112.2824" gradientTransform="matrix(3.9145 0 0 3.9145 -4569.1948 -1099.7728)" gradientUnits="userSpaceOnUse">
			<stop  offset="0.1052" style="stop-color:#FFFFFF"/>
			<stop  offset="0.9099" style="stop-color:#A8A2A0"/>
		</radialGradient>
		<path class="st31" d="M919.2,346l0.1-0.1c0.2-0.2,0.3-0.4,0.4-0.6c5-6.6,6.9-14.4,3.8-18.6c-0.2-0.3-0.3-0.6-0.5-0.9
			c-3.4-5.3-11.6-7.6-18.7-3.3c-7.1,4.4-23,22.2-25.4,23.2c-1.5,0.7-3.4,0.9-4.4-0.6c-0.5-1.1-0.7-2.6-0.8-4.1l0,0
			c-0.2-1.9,0.2-5.3,0.5-7.5c0,0,0.1-0.7,0.1-1.1c-0.4,0.4-0.8,0.9-1.3,1.2c-3.6,2.7-7.5,3.1-9.8,3.2c-0.1,1.1-0.2,4.1,0,6.8
			c0,0.4,0.1,0.9,0.1,1.4c0.6,4.5,2.1,9.6,6.2,11.3c2,0.8,4,1,5.8,0.9c4.2-0.3,7.7-2.3,9-3l0,0c1.1-0.5,2.2-1.1,3.3-1.8
			c6.7-3.9,12.9-9.4,16-12.4l0,0c0.5-0.4,1-0.8,1.3-1.1c0.6-0.5,1.3-1.2,2-1.8c1.6-1.4,3.3-2.8,4.2-3.1c0.5-0.2,1.1-0.1,1.5,0.2
			c1,0.5,1.7,1.9,1.2,3.8c-0.4,1.6-1.3,2.8-1.9,3.6c0.7-0.8,1.5-2.3,1.4-3.9c-0.1-1.5-0.5-2.4-1.4-2.6c-0.6-0.1-1.4,0.1-2.4,0.8
			c-0.3,0.3-1.4,1.3-2.8,2.7c-1.3,1.3-2.9,2.9-4.5,4.5c-0.6,0.5-1.3,1.3-2,2c-0.3,0.3-0.6,0.6-0.9,0.8c-0.9,0.9-1.8,2.4-2.4,4.3
			c-0.8,2.9-1.4,6.6-1.1,10.2c0.3,3.9,1.7,8.4,4.1,12.1c1.5,2.8,4.8,7.1,11,7.1c5.1,0,7.6-2.8,8.3-5.4c0-0.1,0-0.1,0-0.2
			s0.1-0.3,0.1-0.4s0-0.2,0-0.3c0-0.2,0-0.5,0-0.7s0-0.4,0-0.5c-0.3-2.1-2.1-3.8-4.3-3.8c-2.4,0-4.7,1.8-4.3,4.3
			c0.1,0.2,0.2,0.5,0.3,0.8c0.6,1.1,1.6,1.6,2.5,1.8c1.3,0.2,2.4-0.2,2.4-0.2s-1.4,1.1-3.2,0.5c-1-0.3-2.1-1.1-3.2-2.9
			c0,0,0,0,0-0.1c-1.1-1.5-2-3.9-2-7.1c0-6.2,3.8-11.1,6.9-14.3C916.2,349.5,917.8,347.8,919.2,346z"/>
	</g>
	<g>
		<path class="st32" d="M797.9,158.8c0.1-0.1,0.2-0.2,0.2-0.3l0,0c-2.3,1.7-3,4.4-3.2,7.2c0.9,0.2,1.7,0.4,2.4,0.6
			C796.5,163.7,796.2,161,797.9,158.8z"/>
		<path class="st32" d="M789.5,176.5c0.8,0.4,1.7,0.7,2.6,1c1,0.4,2,0.6,2.9,0.6c0.7,0,1.3-0.1,1.8-0.3c0.8-0.3,1.3-0.8,1.6-1.5
			l0.1-0.2c0.1-0.3,0.2-0.5,0.2-0.7v-0.2c0.1-0.7-0.2-1.5-0.7-2.1c-0.3-0.3-0.6-0.6-1-0.9c0,0,0,0,0,0.1v0.2c0,0.2,0,0.5-0.1,0.8
			v0.2c-0.2,0.8-0.6,1.4-1.3,1.8c-0.5,0.3-1.1,0.5-1.7,0.6c-0.9,0.2-1.9,0.2-3,0c-0.9-0.1-1.8-0.3-2.7-0.5c-2.3-0.5-4.9-1.3-7.1-0.5
			l0,0c0.5-0.1,1.1-0.2,1.7-0.2C785.1,174.6,787.4,175.6,789.5,176.5z"/>
		<path class="st32" d="M880.1,310.1l0.1-0.1c0.6-0.4,1.2-0.9,1.7-1.3c2.6-2.4,3.5-5,3.8-7.1c-0.5,0.3-1.1,0.5-1.7,0.7
			c-0.3,0.1-0.7,0.2-1,0.3l-0.3,0.1c-1.7,0.5-3.5,0.9-5.5,1.2c-0.4,0.1-0.8,0.1-1.2,0.2l-0.8,0.1c-0.7,0.1-1.5,0.2-2.2,0.3
			c-3.1,0.4-6.3,0.5-9.6,0.5c-0.3,0-0.7,0-1,0c-0.4,0-1.1,0-1.5,0c-0.1,0.6-0.3,1.6-0.3,3c0,2,0.5,5.1,0.6,6c0.3,0,0.5,0,0.8,0
			c3.7,0,9.5-0.8,12.9-1.8c0.5-0.1,1.2-0.4,1.9-0.6c0.8-0.3,1.5-0.6,2.4-1.1C879.7,310.4,879.9,310.2,880.1,310.1z"/>
		<path class="st32" d="M861.1,329c-0.2,0.6-0.2,2.2-0.1,2.9c0,0.6-0.1,0.9,0.1,1.6c0.4,0,0.8,0,1.1,0c1.3,0,5.4,0,8.9-2.6
			c1.1-0.8,1.9-2.2,2.4-3.7c-4.8,1.8-9.4,1.8-11.1,1.8H862C861.6,329,861.4,329,861.1,329z"/>
		<path class="st32" d="M877.9,317c-0.5,0.2-1,0.3-1.4,0.5c-3.9,1.1-10.2,1.9-14.4,2c-0.3,0-0.6,0-0.9,0c-0.2,0.5-0.4,1.7-0.4,2.4
			c0,0.7,0.1,1.3,0.3,1.9c0.3,0,0.6,0,0.8,0h0.3c1.8,0,7.5,0,12.3-2.8C876.3,320,877.3,318.4,877.9,317z"/>
		<path class="st32" d="M860.4,294.4c0.5,0,0.9,0.1,1.5,0.1h0.2h0.3c1.5,0,2.8-0.2,3.8-0.5c1.2-0.3,2-0.7,2.4-1l0.1-0.1l0.5-3.9
			c0.4-3.3,1.1-8.1,1.8-13.3c0.3-2.4,0.7-4.8,1-7.1c1.1-7.7,11.5-39.8,14.6-49.4c1.1-3.4,2.2-6.7,3.3-10
			c6.4-19.3,12.4-37.4,12.4-50.6c0-17.4-4.7-29.2-10.5-37.6c-4.5-6.6-9.8-11.2-14-15l-1.3-1.1l-0.7-0.6c-6.8-6-11.5-12.1-13.6-15.1
			c-0.1,0.1-0.2,0.2-0.3,0.3c5.1,9.3,18.9,37,18.9,65.8c0,21.5-7.7,61-13.4,90.8C862,274.8,860.7,291,860.4,294.4z"/>
		<path class="st32" d="M729.9,240.4c0-10.6,4.6-20.3,12-27.7c-8.4,8.1-13.7,19.5-13.7,32.2c0,16.4,8.8,31.4,23,39.1
			c3.2,1.7,6.5,3,9.9,3.9c0.9,0.2,1.8,0.4,2.8,0.6c2.5,0.5,5.1,0.7,7.5,0.7c1,0,2,0,3.1-0.1c1.2-0.1,2.3-0.3,3.3-0.5
			c0.3-0.1,0.7-0.2,1-0.4c0.7-0.3,1.3-0.5,1.9-0.8c0.7-0.3,1.2-0.6,1.8-0.9c6.4-3.3,7.6-6.8,7.9-7.8c-2.2,2.1-7.9,3.1-13.9,3.1
			C750.9,281.8,729.9,263.3,729.9,240.4z"/>
		<path class="st32" d="M982.4,212.8c7.5,7.3,12,17,12,27.7c0,22.8-21,41.4-46.8,41.4c-6,0-11.6-1.1-13.9-3.1
			c0.2,1.1,1.5,4.5,7.9,7.8c0.6,0.3,1.2,0.6,1.8,0.9s1.2,0.5,1.9,0.8c0.3,0.1,0.7,0.2,1,0.4c1,0.2,2.1,0.4,3.3,0.5
			c1.1,0.1,2.1,0.1,3.1,0.1c2.5,0,5-0.2,7.5-0.7c1-0.2,1.9-0.4,2.8-0.6c3.5-0.9,6.8-2.2,9.9-3.9c14.2-7.7,23-22.7,23-39.1
			C996.1,232.3,990.8,220.8,982.4,212.8z"/>
		<path class="st32" d="M848.7,291.5c-1.4-10.1-11.8-43.3-22.4-55.7c-12.2-14.3-22.6-10.3-29-3.6c-11.6,11.6-7.8,28.4-7.8,28.4
			s-1.1-11.1,3.2-19C831.1,229.4,846.4,287.2,848.7,291.5z"/>
		<path class="st32" d="M935.2,260.7c0,0,3.7-16.9-7.8-28.4c-6.4-6.7-16.8-10.8-29,3.6c-10.6,12.4-21,45.6-22.3,55.7
			c2.3-4.4,17.6-62.1,56-49.9C936.3,249.6,935.2,260.7,935.2,260.7z"/>
		<path class="st32" d="M871.9,371c-1-0.8-2-1.8-3-3c-0.6-0.7-1.2-1.5-1.8-2.2c-0.1-0.1-0.2-0.2-0.3-0.3c-0.5-0.7-1-1.3-1.4-1.8
			c0,0,0,0,0,0.1l-0.3,0.5c-0.2,0.4-0.4,0.7-0.6,1.1c0.2,0.2,0.3,0.5,0.5,0.7c1,1.3,1.9,2.4,2.8,3.5c0.2,0.2,0.4,0.4,0.7,0.6
			c0.8,0.8,1.7,1.5,2.6,2.2c1.1,0.8,2.4,1.5,3.7,2.3c0.8,0.4,1.7,0.9,2.6,1.3c1.9,0.8,3.7,1.5,5.1,2c-0.5-0.3-3.9-1.9-8.1-5
			C873.6,372.3,872.7,371.6,871.9,371z"/>
		<path class="st32" d="M853.2,386.3c0.5-0.3,0.9-0.6,1.4-0.9c1.3-0.9,2.2-2,3.1-2.7c3.7-3.2,5.6-9.4,5.9-10.5
			c-0.2-0.2-0.8-0.9-1-1.1c-0.6,1.6-1.8,4.7-3.8,7.6l0,0c-0.2,0.2-0.3,0.4-0.5,0.6s-0.3,0.4-0.5,0.6c-0.9,1.1-1.9,2.2-3.1,3.2
			c-0.7,0.6-1.4,1.2-2.1,1.7c-0.5,0.4-1,0.8-1.5,1.2c-2.5,1.9-4.5,3.3-5.7,4.1l0,0c0.9-0.4,2-0.8,3.2-1.4c1.2-0.5,2.3-1.1,3.4-1.8
			C852.4,386.8,852.8,386.6,853.2,386.3z"/>
		<path class="st32" d="M867.6,383.6c-0.5-0.4-1-0.8-1.4-1.2c-0.4-0.4-1.5-1.3-1.9-1.6c0,0.1-0.7,1.2-0.8,1.4
			c0.9,1.1,2.6,2.3,3.3,2.9c0.5,0.4,1.1,0.8,1.7,1.2c0.3,0.2,0.7,0.4,1,0.6c0.6,0.4,1.2,0.7,1.8,1c0.7,0.4,1.4,0.7,2,1
			c1.2,0.5,2.3,1,3.2,1.4c-1.3-0.8-3.8-2.5-6.9-5C869,384.7,868.3,384.2,867.6,383.6z"/>
		<path class="st32" d="M864.1,388.8c-0.7,1.1-2.9,3.4-5.6,6.2c0,0,0,0-0.1,0.1c-0.3,0.3-0.5,0.5-0.8,0.8c-2.5,2.5-5,4.5-6.5,5.6
			c0.8-0.4,1.6-0.8,2.5-1.2c2.2-1.1,4.1-2.4,5.7-3.7c0.2-0.2,0.5-0.4,0.7-0.6c0.3-0.3,0.6-0.6,0.9-0.9c1.6-1.7,3.5-3.9,4.3-5.4
			C864.8,389.3,864.1,388.8,864.1,388.8z"/>
		<path class="st32" d="M864.8,397.6c1.5,1,3.6,2.3,5.4,3.2c0.5,0.3,1,0.5,1.5,0.7l0,0c-0.5-0.5-5.3-4.6-6-5.1
			C865.5,396.6,865,397.4,864.8,397.6z"/>
		<path class="st32" d="M862,413.5c0.3-0.7,0.6-1.4,0.9-2.1c0.7-1.4,1.5-2.6,2.2-3.6s1.3-1.9,1.7-2.8c-0.7-0.4-1.3-0.7-2-1.1
			C863,407.6,862.2,411.1,862,413.5z"/>
		<path class="st32" d="M853.4,370.3c0.4-0.4,0.9-0.7,1.3-1.1l0.1-0.1c0.4-0.4,0.8-0.8,1.2-1.1c0.2-0.2,0.4-0.4,0.6-0.6
			c0.7-0.8,1.3-1.5,1.8-2.1c0.2-0.2,0.3-0.4,0.5-0.6c0.3-0.5,0.6-0.9,0.9-1.4l0.1-0.2c0.9-1.5,1.5-3,1.9-4.3
			c0.2-0.7,0.5-2.6,0.5-3.4c0,0,0.1-2.1,0-2.8c-0.1,0.1-0.6,2.8-1,4c-0.3,0.8-0.6,1.6-1,2.6c-0.3,0.6-0.6,1.2-1,1.8
			c-0.3,0.5-0.7,1-1,1.5c-0.1,0.1-0.1,0.2-0.2,0.3c-0.8,1.1-1.7,2.2-2.9,3.4c0,0.1-0.1,0.1-0.1,0.1c-0.2,0.2-0.4,0.4-0.7,0.6
			c-2.8,2.7-6.1,5.2-9,7.3c-2.4,1.7-4.4,3-5.8,3.8c1.1-0.4,2.5-0.9,4.1-1.6c0.3-0.1,0.5-0.3,0.8-0.4c2.1-1.1,4.5-2.4,6.8-4
			C851.9,371.4,852.7,370.9,853.4,370.3z"/>
		<path class="st32" d="M835.9,237.6c-4.4-9.9-6.4-16-15.6-29.3c-1.2-1.7-12.1-16.4-19.9-27.1l-0.6,0.6c0.6,0.8,21.7,28.9,26.1,36.2
			C828.9,223,833.6,232.7,835.9,237.6z"/>
		<path class="st32" d="M927,166.4c0.7-0.3,1.5-0.5,2.4-0.6c-0.2-2.8-0.9-5.5-3.2-7.2l0,0c0.1,0.1,0.2,0.2,0.2,0.3
			C928.1,161,927.8,163.7,927,166.4z"/>
		<path class="st32" d="M925.8,176.1l0.1,0.2c0.3,0.7,0.9,1.2,1.6,1.5c0.5,0.2,1.1,0.3,1.8,0.3c0.9,0,1.9-0.2,2.9-0.6
			c0.8-0.3,1.7-0.7,2.6-1c2.2-0.9,4.4-1.9,6.6-1.9c0.6,0,1.2,0.1,1.7,0.2l0,0c-2.2-0.8-4.8,0-7.1,0.5c-0.9,0.2-1.8,0.4-2.7,0.5
			c-1.1,0.2-2.1,0.2-3,0c-0.7-0.1-1.3-0.4-1.7-0.6c-0.7-0.5-1.1-1.1-1.3-1.8v-0.2c0-0.3-0.1-0.6-0.1-0.8v-0.2c0,0,0,0,0-0.1
			c-0.4,0.3-0.7,0.5-1,0.9c-0.5,0.6-0.8,1.4-0.7,2.1v0.2C925.6,175.5,925.7,175.8,925.8,176.1z"/>
		<path class="st32" d="M898.5,217.9c4.4-7.3,25.5-35.4,26.1-36.2l-0.6-0.6c-7.8,10.7-18.7,25.4-19.9,27.1
			c-9.2,13.3-11.2,19.4-15.6,29.3C890.7,232.6,895.4,222.9,898.5,217.9z"/>
		<path class="st32" d="M823.5,346.9c0,0-9.5-9.4-9.8-9.7c2.2,3.1,6.3,8.5,8.5,13.7c4.1,9.5-0.5,20.5-1.7,22.8
			c0.6-0.7,5.4-5.2,6-12.8c0.2-2.8-0.1-6.6-1-10.1C825,349.2,824.1,347.4,823.5,346.9z"/>
		<path class="st32" d="M858.7,348.3c1.2-5.6,0.8-10.2,0.8-10.2s-2.2-0.1-4.2-1c0.2,1.2,0.8,13.1-4.2,15.7
			c-5.5,2.8-23.6-9-31.1-14.7c1.9,1.8,7.5,6.8,14.1,10.9c2.8,1.8,7.7,4.8,10.3,5.6C853.5,357.6,857.5,354,858.7,348.3z"/>
		<path class="st32" d="M910.6,337.2c-0.3,0.3-9.8,9.7-9.8,9.7c-0.5,0.5-1.5,2.3-2,4c-0.9,3.4-1.2,7.3-1,10.1c0.6,7.5,5.4,12,6,12.8
			c-1.2-2.3-5.8-13.4-1.7-22.8C904.3,345.7,908.5,340.2,910.6,337.2z"/>
		<path class="st32" d="M873.1,352.9c-5-2.5-4.4-14.5-4.2-15.7c-2,0.8-4.2,1-4.2,1s-0.4,4.6,0.8,10.2s5.3,9.2,14.3,6.3
			c2.6-0.9,7.5-3.8,10.3-5.6c6.6-4.1,12.2-9,14.1-10.9C896.7,343.9,878.6,355.7,873.1,352.9z"/>
	</g>
	<g>
		<path class="st1" d="M238.6,678.8V710c-20.8,11.3-44.8,17-72,17c-22.1,0-40.9-4.4-56.3-13.3S82.7,692.5,73.8,677
			s-13.5-32.5-13.5-50.6c0-28.8,10.3-53,30.8-72.7c20.6-19.7,45.9-29.5,76-29.5c20.8,0,43.9,5.4,69.3,16.3V571
			c-23.1-13.2-45.8-19.8-67.9-19.8c-22.7,0-41.5,7.2-56.5,21.5s-22.5,32.2-22.5,53.8c0,21.7,7.4,39.6,22.1,53.6s33.6,21,56.5,21
			C192.3,700.9,215.7,693.5,238.6,678.8z"/>
		<path class="st1" d="M291,526.8h28.3V699h89.1v25.8H291V526.8z"/>
		<path class="st1" d="M448.4,526.8h112.2V552h-83.9v60.4h81v25.4h-81v61.5h86.6v25.2H448.4V526.8z"/>
		<path class="st1" d="M614.5,724.7v-198h49.6c20,0,35.9,5,47.7,14.9s17.6,23.3,17.6,40.2c0,11.5-2.9,21.5-8.6,29.9
			c-5.8,8.4-14,14.7-24.8,18.8c6.3,4.2,12.5,9.8,18.6,17s14.5,19.7,25.5,37.5c6.9,11.2,12.4,19.7,16.6,25.4l10.5,14.2h-33.7l-8.6-13
			c-0.3-0.5-0.8-1.3-1.7-2.4l-5.5-7.8l-8.8-14.5l-9.5-15.5c-5.8-8.1-11.2-14.6-16.1-19.4c-4.9-4.8-9.3-8.3-13.2-10.4
			c-3.9-2.1-10.5-3.2-19.8-3.2h-7.4v86.2L614.5,724.7L614.5,724.7z M651.4,550.8h-8.5v62.5h10.8c14.4,0,24.2-1.2,29.5-3.7
			s9.5-6.2,12.5-11.1s4.5-10.6,4.5-16.9c0-6.2-1.7-11.9-5-16.9s-8-8.6-14-10.7C675.2,551.9,665.3,550.8,651.4,550.8z"/>
		<path class="st1" d="M961.4,526.8h26.5v198h-28.5v-154l-60.9,76.5h-5.2l-61.6-76.5v154h-28.3v-198h26.8l65.8,81.3L961.4,526.8z"/>
		<path class="st1" d="M1137.6,523.9c30.6,0,56.1,9.7,76.4,29c20.3,19.4,30.5,43.7,30.5,72.8c0,29.2-10.3,53.3-30.8,72.5
			s-46.4,28.7-77.7,28.7c-29.8,0-54.7-9.6-74.6-28.7s-29.8-43.1-29.8-71.9c0-29.6,10-54,30-73.4
			C1081.8,533.6,1107.1,523.9,1137.6,523.9z M1138.8,550.8c-22.7,0-41.3,7.1-55.8,21.3s-21.9,32.3-21.9,54.3
			c0,21.3,7.3,39.1,21.9,53.3s32.9,21.3,54.9,21.3c22.1,0,40.5-7.2,55.3-21.7s22.2-32.5,22.2-54c0-21-7.4-38.6-22.2-52.9
			C1178.4,558,1160.3,550.8,1138.8,550.8z"/>
		<path class="st1" d="M1438.9,526.8h26.9v198h-24.4l-132.3-152.5v152.5h-26.6v-198h23L1439,680.6L1438.9,526.8L1438.9,526.8z"/>
		<path class="st1" d="M1498.6,526.5H1664v25.2h-69v173h-28.5v-173h-67.9V526.5z"/>
	</g>
	<g>
		<path class="st33" d="M682,810.9h18.9v23.8c-6.9,3-13.8,4.5-20.6,4.5c-9.3,0-16.7-2.7-22.3-8.1s-8.3-12.1-8.3-20.1
			c0-8.4,2.9-15.4,8.7-21s13-8.4,21.7-8.4c3.2,0,6.2,0.3,9,1s6.4,1.9,10.8,3.8v8.2c-6.7-3.9-13.3-5.8-20-5.8
			c-6.1,0-11.3,2.1-15.5,6.3s-6.3,9.3-6.3,15.4c0,6.4,2.1,11.6,6.3,15.6s9.6,6.1,16.3,6.1c3.2,0,7.1-0.7,11.5-2.2l0.8-0.2V818h-10.8
			L682,810.9L682,810.9z"/>
		<path class="st33" d="M749.9,838.5v-56.2H764c5.7,0,10.2,1.4,13.5,4.2s5,6.6,5,11.4c0,3.3-0.8,6.1-2.5,8.5c-1.6,2.4-4,4.2-7,5.3
			c1.8,1.2,3.5,2.8,5.3,4.8c1.7,2,4.1,5.6,7.2,10.7c2,3.2,3.5,5.6,4.7,7.2l3,4h-9.6l-2.5-3.7c-0.1-0.1-0.2-0.4-0.5-0.7l-1.6-2.2
			l-2.5-4.1l-2.7-4.4c-1.7-2.3-3.2-4.1-4.6-5.5c-1.4-1.4-2.6-2.3-3.7-3c-1.1-0.6-3-0.9-5.6-0.9H758v24.5L749.9,838.5L749.9,838.5z
			 M760.4,789.2H758v17.7h3.1c4.1,0,6.9-0.3,8.4-1s2.7-1.8,3.5-3.2s1.3-3,1.3-4.8s-0.5-3.4-1.4-4.8s-2.3-2.5-4-3
			C767.2,789.5,764.3,789.2,760.4,789.2z"/>
		<path class="st33" d="M861.8,781.5c8.7,0,15.9,2.8,21.7,8.3s8.7,12.4,8.7,20.7s-2.9,15.1-8.7,20.6s-13.2,8.1-22,8.1
			c-8.5,0-15.5-2.7-21.2-8.1c-5.6-5.4-8.5-12.2-8.5-20.4c0-8.4,2.8-15.3,8.5-20.8C845.9,784.3,853.1,781.5,861.8,781.5z
			 M862.1,789.2c-6.4,0-11.7,2-15.8,6s-6.2,9.2-6.2,15.4c0,6.1,2.1,11.1,6.2,15.1c4.2,4,9.3,6,15.6,6s11.5-2,15.7-6.2
			c4.2-4.1,6.3-9.2,6.3-15.3c0-6-2.1-11-6.3-15C873.3,791.2,868.2,789.2,862.1,789.2z"/>
		<path class="st33" d="M980.8,782.4h8.1v31.9c0,4.3-0.3,7.6-1,9.8c-0.6,2.2-1.4,4-2.3,5.5c-0.9,1.5-2.1,2.8-3.4,3.9
			c-4.5,3.8-10.3,5.8-17.5,5.8c-7.3,0-13.2-1.9-17.6-5.7c-1.3-1.2-2.5-2.5-3.4-4s-1.7-3.3-2.3-5.4s-0.9-5.4-0.9-10v-31.8h8.1v31.9
			c0,5.3,0.6,9,1.8,11s3,3.7,5.5,5c2.5,1.2,5.4,1.9,8.7,1.9c4.8,0,8.7-1.3,11.7-3.7c1.6-1.3,2.7-2.9,3.4-4.8c0.7-1.8,1-4.9,1-9.4
			L980.8,782.4L980.8,782.4z"/>
		<path class="st33" d="M1039.3,838.5v-56.3h17.8c5.4,0,9.6,1.5,12.8,4.3c3.2,2.9,4.8,6.8,4.8,11.7c0,3.3-0.8,6.2-2.4,8.7
			s-3.9,4.3-6.7,5.5s-6.9,1.7-12.2,1.7h-5.9v24.4L1039.3,838.5L1039.3,838.5z M1055.7,789.4h-8.3V807h8.8c3.3,0,5.8-0.8,7.6-2.3
			s2.7-3.8,2.7-6.6C1066.4,792.3,1062.8,789.4,1055.7,789.4z"/>
	</g>
</g>
</svg>
